<?xml version="1.0" encoding="UTF-8"?>
<svg version="1.1" xmlns="http://www.w3.org/2000/svg" width="509" height="490">
<path d="M0 0 C6.71937427 0.84660551 9.21125432 4.20033125 13.45800781 9.23754883 C21.7904899 19.13305185 21.7904899 19.13305185 33.5859375 23.296875 C36.91206917 23.41665058 40.10565834 23.32466737 43.42138672 23.04516602 C51.04504296 22.43063228 51.04504296 22.43063228 54.43066406 24.44921875 C56.44589978 26.20333815 58.23936477 27.9933287 60 30 C63.38404971 33.62659362 63.38404971 33.62659362 68 35 C68.45375 34.195625 68.9075 33.39125 69.375 32.5625 C71 30 71 30 73 29 C88.24153783 27.07906238 103.40931516 34.72763938 115.125 43.8125 C115.80820312 44.37582031 116.49140625 44.93914062 117.1953125 45.51953125 C119.14089612 47.16532988 119.14089612 47.16532988 122 49 C122 49.66 122 50.32 122 51 C122.58265625 51.24105469 123.1653125 51.48210937 123.765625 51.73046875 C136.9590854 59.22675307 145.52654238 80.92568015 149.41015625 94.88671875 C156.54994531 122.26527993 161.04637947 161.53435948 146.1875 187.12109375 C144.95958439 189.02485807 143.69748165 190.90734741 142.390625 192.7578125 C140.736466 194.98517544 140.736466 194.98517544 141 198 C140.34 198 139.68 198 139 198 C136.29857673 209.33987281 135.80947927 219.41035241 137 231 C137.66 231.33 138.32 231.66 139 232 C139.640625 233.79296875 139.640625 233.79296875 140.25 236.1875 C141.855843 241.97019889 144.27070416 247.27810822 146.79296875 252.703125 C148.02204799 256.0602217 148.24134948 258.4602077 148 262 C147.41508789 262.02505615 146.83017578 262.0501123 146.22753906 262.07592773 C143.56815529 262.19222962 140.90909597 262.31480067 138.25 262.4375 C137.32960938 262.47681641 136.40921875 262.51613281 135.4609375 262.55664062 C134.57148438 262.59853516 133.68203125 262.64042969 132.765625 262.68359375 C131.94868164 262.72025146 131.13173828 262.75690918 130.29003906 262.79467773 C126.13122074 263.1675526 123.73645954 263.74231007 121 267 C120.67 267.66 120.34 268.32 120 269 C119.67 269.33 119.34 269.66 119 270 C118.67 274.29 118.34 278.58 118 283 C109.09 283 100.18 283 91 283 C90.67 283.66 90.34 284.32 90 285 C89.34 285.33 88.68 285.66 88 286 C88.31978218 293.3549901 91.80233277 299.80233277 97 305 C97.33 305.99 97.66 306.98 98 308 C98.66 308.33 99.32 308.66 100 309 C98.42306589 312.89702108 95.88838498 315.2489773 92.875 318.125 C91.21276567 319.71189226 89.57775654 321.32909178 88 323 C88 323.66 88 324.32 88 325 C87.319375 325.391875 86.63875 325.78375 85.9375 326.1875 C83.31824754 327.8036345 81.80924892 329.16214743 79.75 331.375 C76.04189505 335.20508209 71.91911909 337.93130069 67 340 C66.01 340 65.02 340 64 340 C64 339.34 64 338.68 64 338 C63.278125 337.896875 62.55625 337.79375 61.8125 337.6875 C56.83398017 336.47052849 53.34234206 333.83750385 50 330 C50 329.34 50 328.68 50 328 C49.34 328 48.68 328 48 328 C48 327.34 48 326.68 48 326 C47.34 326 46.68 326 46 326 C44.65795898 324.63232422 44.65795898 324.63232422 43.05859375 322.6796875 C37.93718083 316.65402718 32.23839942 311.20619685 26.58764648 305.68359375 C25.17005197 304.29600999 23.75874095 302.90201582 22.34765625 301.5078125 C21.51242432 300.68941895 20.67719238 299.87102539 19.81665039 299.02783203 C18 297 18 297 18 295 C17.1646875 294.6596875 17.1646875 294.6596875 16.3125 294.3125 C13.38614565 292.65159618 11.33203184 290.38447797 9 288 C7.65761855 286.65488284 6.31374177 285.31125708 4.96875 283.96875 C-3.96875 275.03125 -3.96875 275.03125 -6.08569336 272.91186523 C-7.66712026 271.33245521 -9.25636092 269.76087311 -10.84765625 268.19140625 C-15.5641397 263.38932419 -18.86331619 258.45137487 -21.625 252.3125 C-25.04720535 245.18964215 -30.05222511 240.09702756 -35.5234375 234.52099609 C-37.68152422 232.29796695 -39.74732162 229.99668062 -41.8125 227.6875 C-42.45832031 226.96949219 -43.10414062 226.25148438 -43.76953125 225.51171875 C-44.50558594 224.68285156 -45.24164063 223.85398437 -46 223 C-46.90528442 222.17894775 -46.90528442 222.17894775 -47.82885742 221.34130859 C-50.72643034 218.52163716 -52.81890261 216.44944344 -53.33276367 212.33666992 C-53.19206344 209.29862526 -52.9431838 206.28041292 -52.6875 203.25 C-52.43210393 195.38496196 -53.15341138 190.19774792 -58.45703125 184.1640625 C-61.9882564 180.61529129 -65.73161081 177.39778616 -69.5625 174.1796875 C-74.57803209 169.86971027 -74.57803209 169.86971027 -75.1875 166.1328125 C-75 163 -75 163 -74 160 C-70.75 158.625 -70.75 158.625 -67 158 C-61.11027886 160.81752494 -56.82534161 165.83914462 -52.27832031 170.40600586 C-50.74925255 171.93824901 -49.20729023 173.45664428 -47.6640625 174.97460938 C-46.68669023 175.94970985 -45.71009994 176.92559489 -44.734375 177.90234375 C-43.84975586 178.78398193 -42.96513672 179.66562012 -42.05371094 180.57397461 C-38.83570122 184.37537292 -38.88636314 187.22742927 -39 192.0703125 C-39.48516579 205.30127999 -39.48516579 205.30127999 -33.4375 216.4375 C-30.69267417 219.17589391 -30.69267417 219.17589391 -27.20703125 219.92578125 C-23.76919635 218.48371599 -23.06985207 215.43114847 -21.6875 212.1875 C-17.41380968 203.13880007 -17.41380968 203.13880007 -13.2421875 201.38671875 C-8.91511019 200.64041099 -4.55010552 200.92656751 -0.17578125 201.0390625 C18.88088616 201.19234537 36.85015224 193.35435603 50.62109375 180.40234375 C64.72565655 166.15881974 72.26955521 148.32062569 72.4375 128.3125 C72.09426516 105.89465458 62.20790155 88.6564288 48 72 C48.66 71.67 49.32 71.34 50 71 C50.69563146 69.00988912 51.35532002 67.0071951 52 65 C53.13946088 62.34216987 54.38065321 59.73509327 55.625 57.125 C55.94984375 56.43664062 56.2746875 55.74828125 56.609375 55.0390625 C57.40323472 53.35794781 58.20119558 51.67877079 59 50 C55.21667738 44.49924804 51.12055713 38.80182634 44.23730469 37.46240234 C41.10223068 37.25451021 38.0165672 37.20905115 34.875 37.25 C21.80221931 37.36383128 21.80221931 37.36383128 17.4375 33.875 C15.9113537 32.29403937 14.43959462 30.66015854 13 29 C11.72942563 27.72496507 10.44850284 26.46019953 9.16015625 25.203125 C5.88170519 21.99901785 2.64974609 18.75507456 -0.5546875 15.47705078 C-1.69582937 14.31085005 -2.84626066 13.15373934 -4 12 C-5 10 -5 10 -4.25 7.125 C-3.11466579 4.28666446 -1.95916576 2.31537772 0 0 Z M81 178 C80.17154553 180.83898118 80.17154553 180.83898118 81 184 C82.67325871 186.54063199 84.74655641 188.58777654 86.9140625 190.7109375 C87.52132172 191.32393707 88.12858093 191.93693665 88.75424194 192.56851196 C90.03989244 193.85823846 91.3331237 195.14044648 92.63330078 196.41552734 C94.61849115 198.36859646 96.56965401 200.35158891 98.51953125 202.33984375 C99.77412242 203.59046996 101.03057362 204.83923358 102.2890625 206.0859375 C102.87056061 206.67958099 103.45205872 207.27322449 104.05117798 207.88485718 C106.89828832 210.63583359 108.27976677 211.89613355 112.29443359 212.47509766 C115.07964778 212.21980849 115.07964778 212.21980849 117 210.3125 C118.2547087 208.05181441 118.2547087 208.05181441 117.44140625 205.7421875 C115.51869797 202.08435223 112.91805405 199.63269676 109.9375 196.8125 C104.10530726 191.21061453 104.10530726 191.21061453 103 189 C102.34 189 101.68 189 101 189 C101 188.01 101 187.02 101 186 C101.74161377 186.02618408 102.48322754 186.05236816 103.24731445 186.0793457 C106.60216145 186.18317431 109.95667105 186.24828239 113.3125 186.3125 C115.06336914 186.3753418 115.06336914 186.3753418 116.84960938 186.43945312 C117.96787109 186.45556641 119.08613281 186.47167969 120.23828125 186.48828125 C121.26993408 186.51446533 122.30158691 186.54064941 123.36450195 186.56762695 C126.24558214 186.25182605 126.24558214 186.25182605 127.86010742 183.46948242 C128.23627197 182.65455322 128.61243652 181.83962402 129 181 C127.13433512 177.37206002 127.13433512 177.37206002 124 175 C121.12995274 174.87646855 118.28514571 174.81157225 115.4140625 174.796875 C114.13406876 174.78832489 114.13406876 174.78832489 112.82821655 174.77960205 C111.020907 174.77014802 109.21358018 174.76361647 107.40625 174.75976562 C104.6429227 174.75006293 101.88034006 174.71904509 99.1171875 174.6875 C97.36198359 174.68096964 95.60677435 174.6757193 93.8515625 174.671875 C92.61232529 174.6533548 92.61232529 174.6533548 91.34805298 174.63446045 C85.46735605 174.55187492 85.46735605 174.55187492 81 178 Z M-28 221 C-27.01 221.99 -26.02 222.98 -25 224 C-25.33 223.01 -25.66 222.02 -26 221 C-26.66 221 -27.32 221 -28 221 Z " fill="#323232" transform="translate(144,65)"/>
<path d="M0 0 C0.76075836 -0.00570007 1.52151672 -0.01140015 2.30532837 -0.01727295 C3.91415012 -0.02671248 5.52299112 -0.03325278 7.13183594 -0.03710938 C9.58563165 -0.04681201 12.03858839 -0.0778428 14.4921875 -0.109375 C16.05728671 -0.11590585 17.62239189 -0.121156 19.1875 -0.125 C19.91786469 -0.1373468 20.64822937 -0.1496936 21.40072632 -0.16241455 C25.82823059 -0.14317604 28.73847457 0.40140001 32.2265625 3.203125 C32.2265625 3.863125 32.2265625 4.523125 32.2265625 5.203125 C33.2165625 5.698125 33.2165625 5.698125 34.2265625 6.203125 C33.8965625 10.493125 33.5665625 14.783125 33.2265625 19.203125 C34.8765625 19.863125 36.5265625 20.523125 38.2265625 21.203125 C39.433125 22.069375 39.433125 22.069375 40.6640625 22.953125 C43.21165058 24.52146465 43.21165058 24.52146465 46.1640625 23.578125 C49.27134533 22.24794971 49.27134533 22.24794971 52.2265625 20.453125 C55.2265625 19.203125 55.2265625 19.203125 58.1652832 19.75683594 C62.0442904 21.58945725 63.08793103 23.39269313 65.20703125 27.09375 C65.54656326 27.67598328 65.88609528 28.25821655 66.23591614 28.85809326 C67.31245445 30.71381618 68.36312535 32.58280903 69.4140625 34.453125 C70.13054623 35.69494374 70.848631 36.9358402 71.56835938 38.17578125 C80.12656564 53.00316267 80.12656564 53.00316267 80.4765625 57.203125 C78.3070949 62.40984725 73.12519828 64.75380711 68.2265625 67.203125 C67.75701989 70.24893769 67.75701989 70.24893769 67.6015625 73.765625 C67.52679688 74.96316406 67.45203125 76.16070312 67.375 77.39453125 C67.30152344 78.78478516 67.30152344 78.78478516 67.2265625 80.203125 C67.85304688 80.61304688 68.47953125 81.02296875 69.125 81.4453125 C69.94226563 81.98414063 70.75953125 82.52296875 71.6015625 83.078125 C72.41367187 83.61179687 73.22578125 84.14546875 74.0625 84.6953125 C76.2265625 86.203125 76.2265625 86.203125 78.2265625 88.203125 C78.75149465 92.9921799 77.73795002 95.81023636 75.375 99.94140625 C74.77042969 101.00939453 74.16585937 102.07738281 73.54296875 103.17773438 C72.90230469 104.27923828 72.26164063 105.38074219 71.6015625 106.515625 C70.98410156 107.60552734 70.36664063 108.69542969 69.73046875 109.81835938 C66.13249592 116.1167055 62.35296196 122.23734998 58.2265625 128.203125 C53.54354205 127.34978273 49.51121554 126.58945458 45.4765625 123.953125 C42.44246888 121.86392037 42.44246888 121.86392037 39.6640625 122.765625 C38.8596875 123.24 38.0553125 123.714375 37.2265625 124.203125 C36.1540625 124.491875 35.0815625 124.780625 33.9765625 125.078125 C30.95834877 126.90832708 30.95834877 126.90832708 30.80078125 129.890625 C30.70908718 132.02840669 30.62321754 134.16644559 30.54296875 136.3046875 C30.2265625 139.203125 30.2265625 139.203125 28.1015625 142.453125 C24.56474642 144.60596957 22.2958725 144.33717286 18.2265625 144.203125 C18.23655525 145.96505943 18.23655525 145.96505943 18.24674988 147.7625885 C18.30761056 158.84163571 18.35255902 169.92064892 18.38199902 180.99982548 C18.3976433 186.69551126 18.41885924 192.39106191 18.45288086 198.08666992 C18.48551805 203.58502465 18.50342482 209.08324952 18.51119423 214.58169365 C18.51672988 216.6776172 18.52753966 218.77353378 18.54375267 220.86940193 C18.56558463 223.8090046 18.56852698 226.74807321 18.56713867 229.68774414 C18.5779245 230.55089737 18.58871033 231.4140506 18.599823 232.30335999 C18.56840676 238.46600513 17.77495005 243.65473745 13.2265625 248.203125 C9.88075338 249.38704505 6.63279552 249.33142614 3.1091156 249.33683777 C1.2268074 249.34323524 1.2268074 249.34323524 -0.69352722 249.34976196 C-2.08157352 249.34941247 -3.46961979 249.34895095 -4.85766602 249.34838867 C-6.32135097 249.35138122 -7.78503514 249.35478397 -9.24871826 249.35856628 C-13.22170084 249.3673985 -17.19466188 249.36974401 -21.16765332 249.37038207 C-24.48300146 249.37133167 -27.79834459 249.37501037 -31.11369079 249.37855417 C-38.9324859 249.38669495 -46.7512695 249.38913866 -54.57006836 249.38842773 C-62.64192905 249.38782629 -70.71372306 249.39839215 -78.78556687 249.4141714 C-85.7130288 249.42723212 -92.64046888 249.43261229 -99.56794304 249.43197232 C-103.70675784 249.431717 -107.84551331 249.43458726 -111.98431587 249.44515038 C-115.87407233 249.45480726 -119.76371242 249.45492721 -123.6534729 249.44763374 C-125.08255622 249.44658505 -126.5116467 249.44896759 -127.9407177 249.4549942 C-129.88812201 249.46267628 -131.83556571 249.45688715 -133.78297424 249.45036316 C-135.41919912 249.45118031 -135.41919912 249.45118031 -137.08847904 249.45201397 C-139.7734375 249.203125 -139.7734375 249.203125 -142.7734375 247.203125 C-143.30078125 244.92578125 -143.30078125 244.92578125 -142.7734375 242.203125 C-141.00544209 240.14968717 -139.33801038 238.42934191 -137.3359375 236.640625 C-133.57167161 233.31474797 -133.57167161 233.31474797 -130.75 229.2109375 C-130.78550554 226.16929603 -132.07126059 224.24785575 -133.5859375 221.640625 C-134.39998047 220.21556641 -134.39998047 220.21556641 -135.23046875 218.76171875 C-136.36515867 216.88014432 -137.55463057 215.03133539 -138.7734375 213.203125 C-138.7734375 212.213125 -138.7734375 211.223125 -138.7734375 210.203125 C-137.01966797 210.14705078 -137.01966797 210.14705078 -135.23046875 210.08984375 C-133.68226075 210.0241622 -132.13408508 209.95771561 -130.5859375 209.890625 C-129.81701172 209.86806641 -129.04808594 209.84550781 -128.25585938 209.82226562 C-123.65289604 209.60495834 -120.52871535 209.13337969 -116.7734375 206.203125 C-113.77134766 202.16583177 -113.63664234 198.85154792 -113.69921875 193.98046875 C-113.70993408 192.89886475 -113.72064941 191.81726074 -113.73168945 190.70288086 C-113.74546631 189.87796143 -113.75924316 189.05304199 -113.7734375 188.203125 C-113.07259033 188.1937793 -112.37174316 188.18443359 -111.6496582 188.17480469 C-108.46104725 188.12097956 -105.27388417 188.03735564 -102.0859375 187.953125 C-100.98314453 187.93894531 -99.88035156 187.92476562 -98.74414062 187.91015625 C-92.34446312 187.76683996 -92.34446312 187.76683996 -86.56640625 185.28125 C-83.42218728 181.63697006 -83.37593314 178.85413079 -83.4296875 174.1640625 C-84.16140071 167.86135101 -87.04177787 162.12703648 -89.58300781 156.36865234 C-94.82091033 144.45444347 -97.88641506 133.05065167 -93.7734375 120.203125 C-92.08286562 116.00771496 -89.85576013 112.3182391 -87.3359375 108.578125 C-83.69610614 102.9488206 -81.89669977 96.51224717 -79.7734375 90.203125 C-74.8234375 89.873125 -69.8734375 89.543125 -64.7734375 89.203125 C-64.1134375 87.223125 -63.4534375 85.243125 -62.7734375 83.203125 C-60.42578125 81.76171875 -60.42578125 81.76171875 -57.7109375 80.640625 C-54.93989747 79.299309 -54.93989747 79.299309 -52.7734375 77.203125 C-51.59802125 72.83057654 -51.54620453 68.70768442 -51.7734375 64.203125 C-52.48371094 63.94660156 -53.19398438 63.69007813 -53.92578125 63.42578125 C-54.84488281 63.04292969 -55.76398438 62.66007812 -56.7109375 62.265625 C-57.62746094 61.90597656 -58.54398437 61.54632813 -59.48828125 61.17578125 C-61.93766003 59.06136025 -62.36089924 58.38889627 -63.0390625 55.3359375 C-63.43619108 48.3204729 -59.14545302 42.74855691 -55.5859375 37.015625 C-54.89046974 35.85607966 -54.19709216 34.695278 -53.50585938 33.53320312 C-44.52693486 18.57987368 -44.52693486 18.57987368 -41.7734375 17.203125 C-37.43738401 16.58368879 -35.21932468 17.37143261 -31.7109375 19.765625 C-28.73124978 21.80747939 -28.73124978 21.80747939 -25.2109375 22.265625 C-24.4065625 21.915 -23.6021875 21.564375 -22.7734375 21.203125 C-21.5359375 20.77 -20.2984375 20.336875 -19.0234375 19.890625 C-17.12357875 18.92134914 -17.12357875 18.92134914 -15.7734375 17.203125 C-15.18764609 14.10060011 -15.08545092 11.23306846 -15.13671875 8.078125 C-14.67998623 4.46355368 -13.60719235 3.4088585 -10.7734375 1.203125 C-7.14172335 -0.00744638 -3.78296115 0.02189112 0 0 Z M-0.7734375 14.203125 C-0.8765625 15.95625 -0.9796875 17.709375 -1.0859375 19.515625 C-1.38894574 24.66676502 -1.38894574 24.66676502 -3.01953125 26.94140625 C-5.10920542 28.44466852 -7.09507183 29.22593456 -9.5234375 30.078125 C-12.92023501 31.3587226 -15.69893969 32.6888926 -18.5859375 34.890625 C-23.27245775 38.29064949 -23.27245775 38.29064949 -26.7734375 38.203125 C-28.59637905 37.21569833 -30.26150547 36.14943331 -31.9296875 34.91796875 C-33.8497527 33.9831563 -33.8497527 33.9831563 -36.29296875 34.7109375 C-39.57805489 36.68716255 -40.39299313 38.67265152 -41.9609375 42.140625 C-43.44141405 45.35548569 -44.80726567 48.25386726 -46.7734375 51.203125 C-46.13390137 51.47890381 -45.49436523 51.75468262 -44.83544922 52.03881836 C-42.00774977 53.52370474 -39.97485811 54.8752398 -37.7734375 57.203125 C-36.50338154 61.74775585 -36.69458147 66.0794223 -36.8984375 70.765625 C-36.89650391 72.59383789 -36.89650391 72.59383789 -36.89453125 74.45898438 C-37.09962697 84.29818188 -37.09962697 84.29818188 -40.20703125 87.38671875 C-41.05394531 87.98613281 -41.90085937 88.58554688 -42.7734375 89.203125 C-44.78208109 91.5758224 -44.78208109 91.5758224 -45.7734375 94.203125 C-45.24008398 96.78813043 -45.24008398 96.78813043 -43.7734375 99.203125 C-43.2784375 100.13125 -42.7834375 101.059375 -42.2734375 102.015625 C-41.7784375 102.7375 -41.2834375 103.459375 -40.7734375 104.203125 C-40.1134375 104.203125 -39.4534375 104.203125 -38.7734375 104.203125 C-38.1134375 105.193125 -37.4534375 106.183125 -36.7734375 107.203125 C-35.7525 106.708125 -35.7525 106.708125 -34.7109375 106.203125 C-30.93015763 104.916051 -28.7691495 104.61359372 -24.7734375 105.203125 C-22.15458411 106.7492474 -19.774393 108.48427575 -17.34765625 110.31640625 C-14.20780654 112.61769215 -10.92089524 114.43593302 -7.48828125 116.2578125 C-5.7734375 117.203125 -5.7734375 117.203125 -4.7734375 118.203125 C-4.3096309 122.19415218 -4.06875573 126.19523468 -3.7734375 130.203125 C2.8265625 130.203125 9.4265625 130.203125 16.2265625 130.203125 C16.3090625 128.45 16.3915625 126.696875 16.4765625 124.890625 C16.71990146 119.71967211 16.71990146 119.71967211 18.828125 117.5703125 C21.94156245 115.79555174 25.12157085 114.18902306 28.3515625 112.640625 C33.1246178 110.43489045 33.1246178 110.43489045 37.2265625 107.203125 C43.86434523 106.40659107 45.63943513 107.90956131 52.2265625 111.203125 C55.5265625 105.593125 58.8265625 99.983125 62.2265625 94.203125 C60.2465625 93.213125 60.2465625 93.213125 58.2265625 92.203125 C57.2365625 92.698125 57.2365625 92.698125 56.2265625 93.203125 C56.0409375 92.275 56.0409375 92.275 55.8515625 91.328125 C55.35458894 89.01191668 55.35458894 89.01191668 53.2265625 87.203125 C52.71435631 83.11976009 52.80974796 79.00243546 52.7890625 74.890625 C52.75619141 73.74916016 52.72332031 72.60769531 52.68945312 71.43164062 C52.63526328 63.00265585 52.63526328 63.00265585 55.578125 59.0234375 C58.08041939 57.30357145 60.55731137 55.65214704 63.2265625 54.203125 C61.87728705 49.66465302 60.03496902 45.88380254 57.6015625 41.828125 C56.96992188 40.76851562 56.33828125 39.70890625 55.6875 38.6171875 C55.20539063 37.82054687 54.72328125 37.02390625 54.2265625 36.203125 C50.65619574 37.58751461 50.65619574 37.58751461 47.2890625 39.390625 C44.08359484 40.65338499 42.52931832 40.26249951 39.2265625 39.203125 C36.92931643 37.5863839 34.77984107 35.84237523 32.61328125 34.0546875 C29.57806769 31.70003737 26.37113988 29.92823328 22.9765625 28.1484375 C21.2265625 27.203125 21.2265625 27.203125 20.2265625 26.203125 C19.7627559 22.21209782 19.52188073 18.21101532 19.2265625 14.203125 C12.6265625 14.203125 6.0265625 14.203125 -0.7734375 14.203125 Z M-47.7734375 90.203125 C-47.4434375 90.863125 -47.1134375 91.523125 -46.7734375 92.203125 C-46.4434375 91.543125 -46.1134375 90.883125 -45.7734375 90.203125 C-46.4334375 90.203125 -47.0934375 90.203125 -47.7734375 90.203125 Z M-46.7734375 92.203125 C-45.7734375 94.203125 -45.7734375 94.203125 -45.7734375 94.203125 Z M-67.70703125 143.06835938 C-69.00177227 145.20804826 -69.00177227 145.20804826 -68.5859375 147.890625 C-68.01528598 150.37203882 -68.01528598 150.37203882 -65.7734375 151.203125 C-63.52223008 151.28885894 -61.26844447 151.31024688 -59.015625 151.30078125 C-58.35257355 151.2993663 -57.68952209 151.29795135 -57.00637817 151.29649353 C-54.88701887 151.29089254 -52.76776491 151.27834 -50.6484375 151.265625 C-49.21224111 151.26061012 -47.77604306 151.25604719 -46.33984375 151.25195312 C-42.81767405 151.24092282 -39.29556605 151.22365759 -35.7734375 151.203125 C-35.7734375 150.543125 -35.7734375 149.883125 -35.7734375 149.203125 C-35.1134375 149.203125 -34.4534375 149.203125 -33.7734375 149.203125 C-32.99061102 147.41113028 -32.99061102 147.41113028 -32.7734375 145.203125 C-33.75341259 142.96628095 -33.75341259 142.96628095 -35.7734375 141.203125 C-38.91370373 140.58408583 -38.91370373 140.58408583 -42.5234375 140.671875 C-43.17795898 140.6680481 -43.83248047 140.66422119 -44.50683594 140.66027832 C-45.88868755 140.65756009 -47.27059068 140.66491549 -48.65234375 140.68164062 C-50.76679247 140.70305769 -52.87784436 140.68184261 -54.9921875 140.65625 C-56.33594499 140.6588933 -57.67970037 140.66401834 -59.0234375 140.671875 C-60.85648438 140.67864258 -60.85648438 140.67864258 -62.7265625 140.68554688 C-65.84416644 140.92050435 -65.84416644 140.92050435 -67.70703125 143.06835938 Z M-61.69058228 180.06452942 C-63.09089774 182.23318891 -63.09089774 182.23318891 -62.0234375 184.890625 C-60.9711544 187.10067647 -60.9711544 187.10067647 -59.7734375 188.203125 C-57.88750315 188.3180135 -55.99726109 188.36278328 -54.10791016 188.38012695 C-52.89640289 188.39296219 -51.68489563 188.40579742 -50.43667603 188.41902161 C-49.11694794 188.42640854 -47.79721985 188.43379547 -46.4375 188.44140625 C-45.76917522 188.44548178 -45.10085045 188.4495573 -44.41227341 188.45375633 C-40.87511247 188.4746324 -37.33799051 188.48892749 -33.80078125 188.49829102 C-30.14299884 188.50936013 -26.48582405 188.54376018 -22.82825661 188.58346272 C-20.01957044 188.60958162 -17.21103007 188.61797855 -14.40223312 188.62157249 C-12.39743149 188.6288251 -10.39272931 188.65528484 -8.38809204 188.68196106 C-7.17028046 188.67903549 -5.95246887 188.67610992 -4.69775391 188.6730957 C-3.6237735 188.67896194 -2.54979309 188.68482819 -1.44326782 188.69087219 C1.34013329 188.43818587 1.34013329 188.43818587 3.14370728 186.34172058 C4.54402274 184.17306109 4.54402274 184.17306109 3.4765625 181.515625 C2.4242794 179.30557353 2.4242794 179.30557353 1.2265625 178.203125 C-0.65937185 178.0882365 -2.54961391 178.04346672 -4.43896484 178.02612305 C-5.65047211 178.01328781 -6.86197937 178.00045258 -8.11019897 177.98722839 C-9.42992706 177.97984146 -10.74965515 177.97245453 -12.109375 177.96484375 C-12.77769978 177.96076822 -13.44602455 177.9566927 -14.13460159 177.95249367 C-17.67176253 177.9316176 -21.20888449 177.91732251 -24.74609375 177.90795898 C-28.40387616 177.89688987 -32.06105095 177.86248982 -35.71861839 177.82278728 C-38.52730456 177.79666838 -41.33584493 177.78827145 -44.14464188 177.78467751 C-46.14944351 177.7774249 -48.15414569 177.75096516 -50.15878296 177.72428894 C-51.37659454 177.72721451 -52.59440613 177.73014008 -53.84912109 177.7331543 C-54.9231015 177.72728806 -55.99708191 177.72142181 -57.10360718 177.71537781 C-59.88700829 177.96806413 -59.88700829 177.96806413 -61.69058228 180.06452942 Z M-95.7734375 217.203125 C-95.7734375 218.523125 -95.7734375 219.843125 -95.7734375 221.203125 C-95.1134375 221.203125 -94.4534375 221.203125 -93.7734375 221.203125 C-94.1034375 222.193125 -94.4334375 223.183125 -94.7734375 224.203125 C-92.65826222 226.31830028 -87.91226475 225.37118815 -84.98681641 225.38012695 C-83.60394188 225.38998375 -83.60394188 225.38998375 -82.19313049 225.40003967 C-79.12875295 225.41982268 -76.06442448 225.43144559 -73 225.44140625 C-71.95656811 225.44548178 -70.91313622 225.4495573 -69.83808517 225.45375633 C-64.31686346 225.47463719 -58.79566676 225.48893087 -53.27441406 225.49829102 C-47.55856927 225.50936725 -41.84311254 225.54377553 -36.12740517 225.58346272 C-31.7437363 225.60955053 -27.36016103 225.61797581 -22.97642136 225.62157249 C-20.86881257 225.62645779 -18.76120848 225.63812652 -16.65367508 225.65661049 C-13.70841567 225.68083832 -10.76417523 225.68006706 -7.81884766 225.6730957 C-6.94288437 225.68590576 -6.06692108 225.69871582 -5.16441345 225.71191406 C-0.50210139 225.71801512 -0.50210139 225.71801512 3.33877563 223.34172058 C4.50859295 221.14535158 4.50859295 221.14535158 3.4765625 218.515625 C2.4242794 216.30557353 2.4242794 216.30557353 1.2265625 215.203125 C-1.71516183 215.09719783 -4.63353555 215.05634876 -7.57592773 215.05786133 C-8.49945038 215.05450272 -9.42297302 215.0511441 -10.3744812 215.04768372 C-13.44367803 215.03814301 -16.51282049 215.03622906 -19.58203125 215.03515625 C-21.70573449 215.03194588 -23.8294375 215.02858198 -25.95314026 215.02507019 C-30.41122958 215.01907113 -34.8692995 215.01723109 -39.32739258 215.01782227 C-45.05217988 215.01792394 -50.7768433 215.0042695 -56.50160122 214.98705006 C-60.88951697 214.9759554 -65.27740254 214.97390227 -69.66533089 214.97443199 C-71.77653493 214.97324812 -73.88773966 214.96880377 -75.99892998 214.96109962 C-78.94656026 214.95135056 -81.89391849 214.95415755 -84.84155273 214.96020508 C-85.7211113 214.95458557 -86.60066986 214.94896606 -87.50688171 214.94317627 C-92.11935582 214.75121699 -92.11935582 214.75121699 -95.7734375 217.203125 Z " fill="#313131" transform="translate(388.7734375,148.796875)"/>
<path d="M0 0 C2.27764008 1.87853004 4.20915284 4.02505731 6.18359375 6.21484375 C7.37049782 7.4718817 8.55869209 8.72770243 9.74804688 9.98242188 C11.59178663 11.94922412 13.42456188 13.92322642 15.23510742 15.9206543 C22.75269488 24.16976045 28.26172836 29.41766202 39.62036133 30.63061523 C51.05014147 31.87985726 60.83245867 38.88155423 68.1015625 47.48828125 C77.31248785 60.08961104 80.85393581 73.58330385 78.53515625 89.11328125 C75.49546877 102.98073124 67.95673257 113.87499207 56.1953125 121.91796875 C42.86389972 129.56559223 29.94752851 131.28156499 15 128 C1.25287627 123.85748884 -9.65332543 114.79543432 -16.53515625 102.1875 C-18.99290082 96.79909207 -20.11120426 92.26264099 -20.41015625 86.35546875 C-21.6276364 77.25432533 -27.03218696 72.79365906 -33.5625 67.0625 C-35.19146106 65.60032676 -36.81008729 64.12964388 -38.41307068 62.63902283 C-39.85842824 61.29955512 -41.33193331 59.99064715 -42.80688477 58.68383789 C-46.07086473 54.68952287 -46 51.00075405 -46 46 C-37.79050302 43.99809398 -37.79050302 43.99809398 -33.8359375 46.2109375 C-31.75521493 48.04296813 -29.87403328 49.95696573 -28 52 C-26.56884511 53.48530669 -25.13144465 54.96462386 -23.6875 56.4375 C-23.05199219 57.11683594 -22.41648437 57.79617187 -21.76171875 58.49609375 C-20.00577283 60.32463119 -20.00577283 60.32463119 -17 60 C-16.814375 59.195625 -16.62875 58.39125 -16.4375 57.5625 C-11.94891703 46.43862046 -1.77097394 37.84917291 9 33 C9.66 33 10.32 33 11 33 C5.68811094 26.65164479 -0.08306202 20.86374609 -6.01977539 15.10522461 C-6.66164795 14.47495361 -7.30352051 13.84468262 -7.96484375 13.1953125 C-8.5487085 12.62828613 -9.13257324 12.06125977 -9.73413086 11.47705078 C-11 10 -11 10 -11 8 C-11.66 7.67 -12.32 7.34 -13 7 C-10.59849906 0.51594747 -10.59849906 0.51594747 -8.1875 -1.5625 C-4.89459027 -2.22108195 -3.07329047 -1.33889351 0 0 Z " fill="#323232" transform="translate(115,114)"/>
<path d="M0 0 C6.42982885 3.71594005 10.78611297 8.66805301 13.09375 15.76953125 C14.60191008 22.7447716 14.14293558 29.69051624 10.5625 35.9375 C5.73323838 42.41151014 1.50894606 46.9778028 -6.6875 48.25 C-14.86876083 49.32864668 -20.630147 48.10397179 -27.546875 43.48828125 C-32.45268995 39.46429667 -36.16174931 34.18867837 -37.4375 27.9375 C-38.05949804 20.82508758 -37.83885954 13.06654425 -33.375 7.25 C-23.20616491 -0.75525316 -12.87624733 -5.9684733 0 0 Z " fill="#323232" transform="translate(408.4375,198.0625)"/>
<path d="M0 0 C1.19590256 0.00848465 2.39180511 0.0169693 3.62394714 0.02571106 C4.92749146 0.04022812 6.23103577 0.05474518 7.57408142 0.06970215 C8.96732202 0.08148995 10.3605667 0.09280497 11.7538147 0.10368347 C14.74890637 0.12801939 17.74394505 0.15557013 20.73898506 0.18559265 C25.47453787 0.23291981 30.21013635 0.2723341 34.94577026 0.31054688 C44.99632834 0.39276104 55.04680063 0.48373609 65.09727478 0.57556152 C75.95118043 0.67470267 86.80508711 0.77232881 97.65909284 0.85994673 C102.36718033 0.89825079 107.07518693 0.94157479 111.78319371 0.98873138 C114.71037428 1.01703344 117.63757858 1.04108283 120.56480598 1.06397438 C122.57028029 1.08095864 124.57570872 1.10311302 126.58113098 1.12541199 C127.77421371 1.13389664 128.96729645 1.14238129 130.1965332 1.15112305 C131.23350877 1.160718 132.27048433 1.17031296 133.3388834 1.18019867 C135.98030943 1.18583457 135.98030943 1.18583457 138.21216488 0.44583893 C138.81362615 0.32364738 139.41508741 0.20145584 140.03477478 0.07556152 C141.02477478 0.73556152 142.01477478 1.39556152 143.03477478 2.07556152 C139.79222041 3.15641298 137.44244683 3.20404544 134.03085327 3.20927429 C132.77591064 3.21353928 131.52096802 3.21780426 130.22799683 3.22219849 C128.83473202 3.22184897 127.44146725 3.22138744 126.04820251 3.2208252 C124.58304254 3.22381683 123.11788336 3.22721937 121.65272522 3.23100281 C117.67148638 3.23984451 113.69026903 3.24218094 109.70902133 3.24281859 C106.38865845 3.24376735 103.06830059 3.2474451 99.74793965 3.25099069 C91.91817442 3.25913517 84.0884207 3.26157485 76.25865173 3.26086426 C68.17145506 3.2602628 60.08432494 3.27082811 51.99714512 3.28660792 C45.06037723 3.2996626 38.12363117 3.30504906 31.18685108 3.30440885 C27.04078747 3.30415334 22.89478304 3.30703391 18.74873161 3.3175869 C14.85242535 3.32723361 10.95623532 3.32737081 7.05992508 3.32007027 C5.62719746 3.31902028 4.19446272 3.32141169 2.76174736 3.32743073 C0.81175024 3.33509472 -1.13828611 3.329332 -3.08828735 3.32279968 C-4.72784315 3.32361683 -4.72784315 3.32361683 -6.40052128 3.32445049 C-8.96522522 3.07556152 -8.96522522 3.07556152 -10.96522522 1.07556152 C-7.23724377 0.20756225 -3.8237252 -0.03536741 0 0 Z " fill="#202020" transform="translate(257.96522521972656,394.9244384765625)"/>
<path d="M0 0 C0 0.99 0 1.98 0 3 C-3.6441774 5.4294516 -5.71241272 5.16179575 -10 5 C-9.99333817 6.17462296 -9.98667633 7.34924591 -9.97981262 8.5594635 C-9.91895194 19.63851071 -9.87400348 30.71752392 -9.84456348 41.79670048 C-9.8289192 47.49238626 -9.80770326 53.18793691 -9.77368164 58.88354492 C-9.74104445 64.38189965 -9.72313768 69.88012452 -9.71536827 75.37856865 C-9.70983262 77.4744922 -9.69902284 79.57040878 -9.68280983 81.66627693 C-9.66097787 84.6058796 -9.65803552 87.54494821 -9.65942383 90.48461914 C-9.64324509 91.77934898 -9.64324509 91.77934898 -9.6267395 93.10023499 C-9.65815574 99.26288013 -10.45161245 104.45161245 -15 109 C-14.49362019 106.97448078 -13.98687821 104.95188677 -13.4375 102.9375 C-12.6155826 99.29758011 -13.0211897 95.4773318 -13.05554199 91.75816345 C-13.14820326 81.68285402 -13.21339897 71.60759014 -13.25906086 61.53195953 C-13.28521315 55.95291085 -13.32073446 50.37424093 -13.37719727 44.79541016 C-13.43141454 39.40381636 -13.46139694 34.01258807 -13.47438622 28.6207428 C-13.4836394 26.56334156 -13.50170849 24.50596084 -13.52865028 22.44871521 C-13.56480728 19.57539095 -13.56995114 16.70359226 -13.56762695 13.83007812 C-13.58560333 12.9759584 -13.60357971 12.12183868 -13.62210083 11.24183655 C-13.60127258 8.87121582 -13.60127258 8.87121582 -13 5 C-9.61043646 2.07274385 -7.34453279 1.88567019 -3 2 C-2.01 1.34 -1.02 0.68 0 0 Z " fill="#141414" transform="translate(417,288)"/>
<path d="M0 0 C2.84476531 0.70086607 5.42956708 0.64034308 8.36035156 0.609375 C9.63668457 0.60099609 10.91301758 0.59261719 12.22802734 0.58398438 C12.91672913 0.57778076 13.60543091 0.57157715 14.31500244 0.56518555 C30.33095856 0.42908417 46.33295075 0.69191802 62.34472656 1.046875 C63.43289673 1.07088379 64.52106689 1.09489258 65.64221191 1.11962891 C71.83483444 1.25720634 78.02732109 1.399865 84.21972656 1.546875 C84.21972656 1.876875 84.21972656 2.206875 84.21972656 2.546875 C40.16472656 3.041875 40.16472656 3.041875 -4.78027344 3.546875 C-5.44027344 5.196875 -6.10027344 6.846875 -6.78027344 8.546875 C-6.12027344 8.546875 -5.46027344 8.546875 -4.78027344 8.546875 C-4.78027344 9.536875 -4.78027344 10.526875 -4.78027344 11.546875 C-2.14027344 11.876875 0.49972656 12.206875 3.21972656 12.546875 C2.88972656 13.206875 2.55972656 13.866875 2.21972656 14.546875 C-0.59277344 15.421875 -0.59277344 15.421875 -3.78027344 15.546875 C-6.80544383 13.50284095 -7.63403032 12.04827999 -8.65527344 8.546875 C-8.78819345 5.35679461 -8.74191068 4.04350422 -6.78027344 1.546875 C-2.72576213 -0.69377599 -2.72576213 -0.69377599 0 0 Z " fill="#202020" transform="translate(299.7802734375,361.453125)"/>
<path d="M0 0 C0.33 0 0.66 0 1 0 C3.62644585 20.87086438 4.8447975 51.30976686 -7.75 69.3125 C-8.4925 70.199375 -9.235 71.08625 -10 72 C-10.66 71.34 -11.32 70.68 -12 70 C-11.360625 69.2575 -10.72125 68.515 -10.0625 67.75 C-8.21666593 65.2888879 -7.43930826 63.96533074 -7 61 C-6.34 61 -5.68 61 -5 61 C-4.771486 59.40259928 -4.54332615 57.80514748 -4.31640625 56.20751953 C-4.09885785 54.68971657 -3.87727791 53.17248772 -3.65234375 51.65576172 C-1.12971325 34.42553154 -0.32371382 17.38396843 0 0 Z " fill="#1D1D1D" transform="translate(297,184)"/>
<path d="M0 0 C5.78230905 2.46055704 5.78230905 2.46055704 6.7109375 4.76171875 C7.05735438 7.44410894 6.93303324 9.86896372 6.6875 12.5625 C6.60886719 13.51253906 6.53023438 14.46257812 6.44921875 15.44140625 C6 18 6 18 4 21 C1.375 21.6875 1.375 21.6875 -1 22 C-1 22.66 -1 23.32 -1 24 C-1.598125 24.4125 -2.19625 24.825 -2.8125 25.25 C-5.66423631 27.28082718 -5.66423631 27.28082718 -8 33 C-12.95 33 -17.9 33 -23 33 C-23.66 35.97 -24.32 38.94 -25 42 C-25.66 42 -26.32 42 -27 42 C-26.01 38.37 -25.02 34.74 -24 31 C-19.05 30.67 -14.1 30.34 -9 30 C-8.34 28.02 -7.68 26.04 -7 24 C-4.65234375 22.55859375 -4.65234375 22.55859375 -1.9375 21.4375 C1.56884228 19.5318792 2.76201018 18.70603646 4.0546875 14.87109375 C4.44264169 11.32804276 4.71874807 8.49881137 4 5 C1.60390069 2.579266 1.60390069 2.579266 -1 1 C-0.67 0.67 -0.34 0.34 0 0 Z " fill="#222222" transform="translate(333,208)"/>
<path d="M0 0 C5.76575914 -0.07418336 11.53124017 -0.12861797 17.29736328 -0.16479492 C19.25867553 -0.17987695 21.21995408 -0.20034547 23.18115234 -0.22631836 C26.00106118 -0.26272731 28.82052392 -0.27973216 31.640625 -0.29296875 C32.51680481 -0.30845261 33.39298462 -0.32393646 34.29571533 -0.33988953 C40.41845115 -0.34158031 40.41845115 -0.34158031 43.58496094 1.51831055 C44.28540527 2.25174683 44.28540527 2.25174683 45 3 C44.25 10.75 44.25 10.75 42 13 C39.84521484 13.31884766 39.84521484 13.31884766 37.2109375 13.4140625 C36.26992188 13.45273438 35.32890625 13.49140625 34.359375 13.53125 C33.37453125 13.5621875 32.3896875 13.593125 31.375 13.625 C29.88613281 13.68300781 29.88613281 13.68300781 28.3671875 13.7421875 C25.91164615 13.8366314 23.4561159 13.92219875 21 14 C21.515625 14.94875 22.03125 15.8975 22.5625 16.875 C23.036875 17.90625 23.51125 18.9375 24 20 C23.67 20.66 23.34 21.32 23 22 C21.29115995 20.37660195 19.62553283 18.70680947 18 17 C18 16.34 18 15.68 18 15 C17.34 15 16.68 15 16 15 C16 14.01 16 13.02 16 12 C28.375 11.505 28.375 11.505 41 11 C41.66 9.35 42.32 7.7 43 6 C41.3279334 3.72567244 39.95887665 2.20308346 37.12854004 1.6036377 C34.77222401 1.4407158 32.44011858 1.39411121 30.078125 1.390625 C28.78814606 1.36582062 28.78814606 1.36582062 27.47210693 1.34051514 C24.73133212 1.29201632 21.9911122 1.27066044 19.25 1.25 C17.38929497 1.22184183 15.52861581 1.19191461 13.66796875 1.16015625 C9.11202485 1.08625703 4.55638933 1.03669405 0 1 C0 0.67 0 0.34 0 0 Z " fill="#1E1E1E" transform="translate(229,239)"/>
<path d="M0 0 C2.93368973 2.93368973 4.05476683 6.45207832 5.625 10.25 C6.11226563 11.37728516 6.11226563 11.37728516 6.609375 12.52734375 C8.40621128 16.85334034 9.41050107 20.2260246 9 25 C8.41508789 25.02505615 7.83017578 25.0501123 7.22753906 25.07592773 C4.56815529 25.19222962 1.90909597 25.31480067 -0.75 25.4375 C-1.67039062 25.47681641 -2.59078125 25.51613281 -3.5390625 25.55664062 C-4.42851562 25.59853516 -5.31796875 25.64042969 -6.234375 25.68359375 C-7.45979004 25.73858032 -7.45979004 25.73858032 -8.70996094 25.79467773 C-12.86877926 26.1675526 -15.26354046 26.74231007 -18 30 C-18.33 30.66 -18.66 31.32 -19 32 C-19.495 32.495 -19.495 32.495 -20 33 C-20.23287008 34.68183948 -20.41264166 36.3712416 -20.5625 38.0625 C-20.64628906 38.98160156 -20.73007812 39.90070313 -20.81640625 40.84765625 C-20.87699219 41.55792969 -20.93757813 42.26820313 -21 43 C-22.92837425 39.3977969 -23.48657288 37.13586947 -23 33 C-21.68179801 29.74526415 -20.20684868 26.78260145 -17.18457031 24.82275391 C-14.62932137 23.86039484 -12.52433004 23.68108128 -9.796875 23.5859375 C-8.8171875 23.54726563 -7.8375 23.50859375 -6.828125 23.46875 C-5.30445313 23.42234375 -5.30445313 23.42234375 -3.75 23.375 C-2.71875 23.33632813 -1.6875 23.29765625 -0.625 23.2578125 C1.9164894 23.16368326 4.45797433 23.07805021 7 23 C6.67257812 22.06929688 6.34515625 21.13859375 6.0078125 20.1796875 C5.06579858 17.20759706 4.81881392 15.08016344 5 12 C4.34 12 3.68 12 3 12 C2.29773859 10.75823305 1.61370891 9.50614401 0.9375 8.25 C0.55464844 7.55390625 0.17179687 6.8578125 -0.22265625 6.140625 C-1.1312406 3.63859372 -0.88336837 2.4667645 0 0 Z M-1 8 C1 9 1 9 1 9 Z " fill="#181818" transform="translate(283,302)"/>
<path d="M0 0 C6.56936148 7.19501496 7.31514683 18.2839761 7.2109375 27.52734375 C6.5990767 37.60038551 3.41105755 48.35581299 -3.72265625 55.796875 C-5.375 57.1875 -5.375 57.1875 -8 59 C-6.93408473 56.60169065 -5.8436387 54.81757848 -4.125 52.8125 C3.0881334 43.26570579 5.1284277 30.7297302 5 19 C4.36318033 15.49502353 3.29832156 12.31043895 2 9 C1.71253906 8.20980469 1.42507812 7.41960937 1.12890625 6.60546875 C0.44190409 4.7285394 -0.27557557 2.86280568 -1 1 C-0.67 0.67 -0.34 0.34 0 0 Z " fill="#1D1D1D" transform="translate(187,169)"/>
<path d="M0 0 C0.66 0 1.32 0 2 0 C2.144375 1.11375 2.28875 2.2275 2.4375 3.375 C2.78372035 6.82142047 2.78372035 6.82142047 4 9 C3.67 9.66 3.34 10.32 3 11 C3.00586199 13.29203793 3.05472491 15.58403216 3.125 17.875 C3.27498337 28.66863089 0.54485913 39.19267241 -4 49 C-4.99 49.495 -4.99 49.495 -6 50 C-6.70394612 51.31403276 -7.36345658 52.6520257 -8 54 C-8.98879205 55.67334039 -9.98648336 57.34151823 -11 59 C-11.66 58.67 -12.32 58.34 -13 58 C-12.32904297 56.9790625 -12.32904297 56.9790625 -11.64453125 55.9375 C-4.56426445 44.5849187 0.17039261 31.6930257 0.09765625 18.1640625 C0.09443359 17.10058594 0.09121094 16.03710938 0.08789062 14.94140625 C0.07951172 13.84699219 0.07113281 12.75257813 0.0625 11.625 C0.05798828 10.50738281 0.05347656 9.38976562 0.04882812 8.23828125 C0.03709244 5.49213196 0.02067363 2.74609414 0 0 Z " fill="#1E1E1E" transform="translate(216,178)"/>
<path d="M0 0 C2.20835144 2.18325653 4.13181154 4.52233162 6 7 C3.5625 6.1875 3.5625 6.1875 1 5 C0.67 4.01 0.34 3.02 0 2 C-0.66 2 -1.32 2 -2 2 C-2 1.34 -2 0.68 -2 0 C-3.98 0.66 -5.96 1.32 -8 2 C-8.94607807 4.74961511 -8.94607807 4.74961511 -9 8 C-6.81268079 10.77069744 -6.81268079 10.77069744 -4 13 C-2.1875 14.6875 -2.1875 14.6875 -1 16 C-1 16.66 -1 17.32 -1 18 C-0.4225 18.226875 0.155 18.45375 0.75 18.6875 C3.59591381 20.34761639 4.99841921 22.39187957 7 25 C7.886875 25.886875 8.77375 26.77375 9.6875 27.6875 C12 30 12 30 13 32 C12.34 32.66 11.68 33.32 11 34 C10.59676514 33.26934326 10.19353027 32.53868652 9.77807617 31.78588867 C7.94239634 28.90974662 5.99574594 26.79804074 3.55078125 24.42578125 C2.70322266 23.59369141 1.85566406 22.76160156 0.98242188 21.90429688 C-0.33918945 20.62135742 -0.33918945 20.62135742 -1.6875 19.3125 C-3.44590424 17.60488 -5.20005973 15.89287013 -6.94921875 14.17578125 C-7.72612061 13.42208252 -8.50302246 12.66838379 -9.3034668 11.8918457 C-11 10 -11 10 -11 8 C-11.66 7.67 -12.32 7.34 -13 7 C-10.59849906 0.51594747 -10.59849906 0.51594747 -8.1875 -1.5625 C-4.78741919 -2.24251616 -3.10251967 -1.55125984 0 0 Z " fill="#222222" transform="translate(115,114)"/>
<path d="M0 0 C2.90513232 2.09756846 5.46248312 4.47536391 8 7 C7.01 7.495 7.01 7.495 6 8 C5.34 7.67 4.68 7.34 4 7 C4 6.34 4 5.68 4 5 C3.01 4.67 2.02 4.34 1 4 C1 3.34 1 2.68 1 2 C-1.64 2 -4.28 2 -7 2 C-7.58781725 5.20370711 -7.58781725 5.20370711 -7 9 C-5.33364934 11.08815872 -3.54800306 12.7708783 -1.53125 14.51953125 C-0.77328125 15.25236328 -0.77328125 15.25236328 0 16 C0 16.66 0 17.32 0 18 C0.99 18 1.98 18 3 18 C3 18.66 3 19.32 3 20 C3.66 20 4.32 20 5 20 C6.38938077 21.96147874 7.7260411 23.96166576 9 26 C8.67 26.66 8.34 27.32 8 28 C5.16275736 25.33764667 2.36022797 22.64129946 -0.4375 19.9375 C-1.64116211 18.80924805 -1.64116211 18.80924805 -2.86914062 17.65820312 C-9.41642927 11.27666863 -9.41642927 11.27666863 -10.03515625 7.12890625 C-10.02355469 6.09636719 -10.01195313 5.06382812 -10 4 C-10 3.01 -10 2.02 -10 1 C-6.50648943 -0.07492633 -3.63435533 -0.55913159 0 0 Z " fill="#242424" transform="translate(79,159)"/>
<path d="M0 0 C0.66 0 1.32 0 2 0 C2.67119549 1.4562545 3.33681807 2.91507867 4 4.375 C4.556875 5.59316406 4.556875 5.59316406 5.125 6.8359375 C6 9 6 9 6 11 C6.99 11.33 7.98 11.66 9 12 C9 12.66 9 13.32 9 14 C9.969375 14.309375 10.93875 14.61875 11.9375 14.9375 C15 16 15 16 16 17 C23.47294186 18.46475085 30.01556163 18.13739477 37 15 C38.36264518 14.04032511 39.70548506 13.0497661 41 12 C41 12.99 41 13.98 41 15 C35.84375247 20.14668121 30.01067461 20.58310309 23 21 C16.12382336 20.55304852 9.88885574 17.0392517 5.19921875 12.10546875 C2.07773663 8.20920348 0.25642812 5.12856237 0 0 Z " fill="#212121" transform="translate(372,226)"/>
<path d="M0 0 C0.68852554 0.00202423 1.37705109 0.00404846 2.08644104 0.00613403 C3.14261375 0.00469894 3.14261375 0.00469894 4.22012329 0.00323486 C5.71226592 0.00255312 7.2044115 0.00440701 8.69654846 0.00857544 C10.98348147 0.01391591 13.27021737 0.00863443 15.55714417 0.00222778 C17.00441022 0.00288872 18.45167616 0.00417021 19.89894104 0.00613403 C20.58544235 0.0041098 21.27194366 0.00208557 21.97924805 0 C26.82918202 0.0239889 26.82918202 0.0239889 29.05909729 1.13894653 C30.43544138 8.1353623 30.43544138 8.1353623 29.12159729 11.63894653 C28.77097229 12.13394653 28.42034729 12.62894653 28.05909729 13.13894653 C26.40909729 13.13894653 24.75909729 13.13894653 23.05909729 13.13894653 C24.04909729 12.80894653 25.03909729 12.47894653 26.05909729 12.13894653 C26.05909729 11.47894653 26.05909729 10.81894653 26.05909729 10.13894653 C26.71909729 10.13894653 27.37909729 10.13894653 28.05909729 10.13894653 C27.78369025 6.32081206 27.78369025 6.32081206 26.05909729 3.13894653 C21.82038411 2.89673435 17.57593748 2.91043022 13.33106995 2.89871216 C11.19964925 2.88901727 9.06919721 2.85801247 6.93800354 2.82644653 C5.5851447 2.81991553 4.23227894 2.81466544 2.87940979 2.81082153 C1.64464905 2.80147583 0.40988831 2.79213013 -0.86228943 2.78250122 C-3.94176104 2.86595329 -3.94176104 2.86595329 -5.86717224 4.65945435 C-6.2215033 5.14768677 -6.57583435 5.63591919 -6.94090271 6.13894653 C-5.94256362 0.57677163 -5.76393643 0.02865148 0 0 Z " fill="#1E1E1E" transform="translate(326.94090270996094,287.8610534667969)"/>
<path d="M0 0 C0.99 0.99 1.98 1.98 3 3 C2.21625 3.845625 1.4325 4.69125 0.625 5.5625 C-2.16567604 9.05084505 -3.84830958 11.37344218 -4 16 C-1.40609731 20.02959767 1.78240247 23.46166095 5 27 C11.86615319 35.31536176 11.86615319 35.31536176 12 40 C11.67 40.99 11.34 41.98 11 43 C10.59910156 42.18917969 10.19820312 41.37835938 9.78515625 40.54296875 C6.15574822 33.47344154 2.27371585 27.46775804 -2.984375 21.4375 C-4.94423404 19.06743791 -6.49090304 16.67434905 -8 14 C-7.34 14 -6.68 14 -6 14 C-5.7525 13.175 -5.505 12.35 -5.25 11.5 C-3.81295189 7.47626529 -1.97645485 3.78020976 0 0 Z " fill="#212121" transform="translate(200,122)"/>
<path d="M0 0 C-2.63172778 2.91369861 -4.22909273 4.12012164 -8 5 C-10.77080956 8.65850618 -10.77080956 8.65850618 -11 17 C-18.59 17 -26.18 17 -34 17 C-34 12.38 -34 7.76 -34 3 C-33.01 3.495 -33.01 3.495 -32 4 C-32 7.96 -32 11.92 -32 16 C-25.4 16 -18.8 16 -12 16 C-12.103125 14.2675 -12.20625 12.535 -12.3125 10.75 C-12.3125 5.36607143 -12.3125 5.36607143 -9.8125 2.4375 C-2.54945055 -1.27472527 -2.54945055 -1.27472527 0 0 Z " fill="#1F1F1F" transform="translate(417,263)"/>
<path d="M0 0 C3 2 3 2 4 5 C4.66 5.33 5.32 5.66 6 6 C4.42306589 9.89702108 1.88838498 12.2489773 -1.125 15.125 C-2.78723433 16.71189226 -4.42224346 18.32909178 -6 20 C-6 20.66 -6 21.32 -6 22 C-6.680625 22.391875 -7.36125 22.78375 -8.0625 23.1875 C-10.72894222 24.83275158 -12.37176349 26.31783917 -14.5 28.5625 C-17.13890894 31.29957404 -19.24870658 32.97691998 -23 34 C-23 32 -23 32 -21.3203125 30.2734375 C-20.59585938 29.64695312 -19.87140625 29.02046875 -19.125 28.375 C-18.40570313 27.74335938 -17.68640625 27.11171875 -16.9453125 26.4609375 C-15 25 -15 25 -13 25 C-12.34 23.68 -11.68 22.36 -11 21 C-10.34 21 -9.68 21 -9 21 C-9 20.34 -9 19.68 -9 19 C-7.52307016 17.7528148 -6.04202596 16.50964765 -4.52734375 15.30859375 C-2.70225929 13.74490246 -1.42509913 11.92388382 0 10 C0.66 10 1.32 10 2 10 C2 8.02 2 6.04 2 4 C1.34 3.67 0.68 3.34 0 3 C0 2.01 0 1.02 0 0 Z " fill="#191919" transform="translate(238,368)"/>
<path d="M0 0 C0 0.99 0 1.98 0 3 C-4.41091812 6.91777199 -9.26377469 6.34887232 -14.8125 6.1875 C-15.69615234 6.17396484 -16.57980469 6.16042969 -17.49023438 6.14648438 C-19.66042023 6.11129217 -21.83029033 6.05748985 -24 6 C-24.33 8.97 -24.66 11.94 -25 15 C-25.33 15 -25.66 15 -26 15 C-26.33 11.04 -26.66 7.08 -27 3 C-24.45345703 2.92652344 -24.45345703 2.92652344 -21.85546875 2.8515625 C-19.63279577 2.77653556 -17.41014034 2.7009877 -15.1875 2.625 C-14.06794922 2.5940625 -12.94839844 2.563125 -11.79492188 2.53125 C-10.72177734 2.49257813 -9.64863281 2.45390625 -8.54296875 2.4140625 C-7.0583313 2.36693115 -7.0583313 2.36693115 -5.54370117 2.31884766 C-2.75924906 2.16226567 -2.75924906 2.16226567 0 0 Z " fill="#1C1C1C" transform="translate(302,334)"/>
<path d="M0 0 C0 0.66 0 1.32 0 2 C-3.17423584 2.93826489 -6.01515782 3.12139248 -9.31933594 3.11352539 C-10.38013367 3.11344986 -11.4409314 3.11337433 -12.53387451 3.11329651 C-14.24187225 3.10555458 -14.24187225 3.10555458 -15.984375 3.09765625 C-17.15510559 3.0962413 -18.32583618 3.09482635 -19.53204346 3.09336853 C-23.27138829 3.0877709 -27.01067326 3.0752188 -30.75 3.0625 C-33.28515539 3.0574847 -35.82031171 3.05292184 -38.35546875 3.04882812 C-44.57033293 3.03780224 -50.78516219 3.02106644 -57 3 C-57.33 2.34 -57.66 1.68 -58 1 C-50.54355102 0.85691973 -43.08708818 0.71457981 -35.63061523 0.57275391 C-33.09415365 0.52442182 -30.55769528 0.47592042 -28.02124023 0.42724609 C-24.37484559 0.35730155 -20.72843978 0.28796642 -17.08203125 0.21875 C-15.38177544 0.18593933 -15.38177544 0.18593933 -13.64717102 0.15246582 C-12.58644882 0.13244507 -11.52572662 0.11242432 -10.43286133 0.09179688 C-9.50242508 0.07403198 -8.57198883 0.05626709 -7.61335754 0.03796387 C-5.07513621 0.00109149 -2.53844694 -0.00674113 0 0 Z " fill="#232323" transform="translate(390,337)"/>
<path d="M0 0 C0.66 0.66 1.32 1.32 2 2 C-9.75775572 8.40766581 -22.10534989 8.92044674 -35 6 C-37.78810599 5.15126774 -40.32759215 4.17585946 -43 3 C-42.01 2.34 -41.02 1.68 -40 1 C-39.01 1.66 -38.02 2.32 -37 3 C-24.22123416 5.94056828 -13.17511727 6.06957224 -1 1 C-0.67 0.67 -0.34 0.34 0 0 Z " fill="#1F1F1F" transform="translate(165,236)"/>
<path d="M0 0 C-3.21451269 1.60725635 -6.43612536 1.05748185 -10 1 C-10.33 1.66 -10.66 2.32 -11 3 C-11.99 2.85820312 -12.98 2.71640625 -14 2.5703125 C-22.81867892 1.3495256 -22.81867892 1.3495256 -30.8125 4.625 C-33.49683923 7.12922123 -35.11829234 9.37520183 -36 13 C-36.33 13.99 -36.66 14.98 -37 16 C-37.66 16 -38.32 16 -39 16 C-38.53538359 11.04409165 -36.2613066 6.70286118 -33 3 C-28.41522492 0.07102139 -25.00559601 -0.31359821 -19.625 -0.125 C-13.44739639 0.01874804 -13.44739639 0.01874804 -7.3125 -0.5625 C-4.39790103 -0.94744703 -2.71285699 -1.01732137 0 0 Z " fill="#1F1F1F" transform="translate(160,266)"/>
<path d="M0 0 C0.99 0.33 1.98 0.66 3 1 C2.36191406 1.3609375 1.72382813 1.721875 1.06640625 2.09375 C-1.78300633 4.72231964 -1.68972073 6.69508053 -2.0625 10.5 C-2.6650633 16.5120922 -2.6650633 16.5120922 -4.30859375 18.90625 C-6 20 -6 20 -10 20 C-10 20.66 -10 21.32 -10 22 C-16.625 25.125 -16.625 25.125 -20 24 C-20 22.68 -20 21.36 -20 20 C-19.195625 20.268125 -18.39125 20.53625 -17.5625 20.8125 C-13.1408956 21.04521602 -10.62555619 20.16095315 -6.84375 17.9296875 C-4.3420514 15.31138431 -4.36226804 13.51150635 -4.1875 9.9375 C-4.23970703 8.40416016 -4.23970703 8.40416016 -4.29296875 6.83984375 C-3.92468107 3.26990847 -2.71844725 2.22709725 0 0 Z " fill="#222222" transform="translate(378,150)"/>
<path d="M0 0 C4.53722555 5.52357893 4.57412041 11.05836227 4 18 C2.74288333 23.71146706 0.38594974 27.20674617 -4 31 C-4 29.68 -4 28.36 -4 27 C-3.0409375 26.2265625 -3.0409375 26.2265625 -2.0625 25.4375 C1.20538127 21.5754585 1.03921016 16.94047979 1 12 C0.67 11.34 0.34 10.68 0 10 C-0.06996014 8.29297265 -0.08440154 6.58331997 -0.0625 4.875 C-0.05347656 3.96492187 -0.04445313 3.05484375 -0.03515625 2.1171875 C-0.02355469 1.41851562 -0.01195312 0.71984375 0 0 Z " fill="#212121" transform="translate(418,208)"/>
<path d="M0 0 C4.16129252 2.36529493 6.77378012 4.96741818 9.5 8.875 C8.51 8.875 7.52 8.875 6.5 8.875 C5.16666667 7.54166667 3.83333333 6.20833333 2.5 4.875 C-4.38461154 0.35352743 -8.76875883 -0.12612775 -16.78515625 0.81640625 C-17.68105469 0.83574219 -18.57695312 0.85507813 -19.5 0.875 C-20.16 0.215 -20.82 -0.445 -21.5 -1.125 C-14.51216888 -3.45427704 -6.66534364 -3.12719882 0 0 Z " fill="#202020" transform="translate(408.5,198.125)"/>
<path d="M0 0 C6.93 0 13.86 0 21 0 C21 0.66 21 1.32 21 2 C16.5621439 3.11165232 12.23043614 3.11527763 7.6875 3.0625 C6.94693359 3.05798828 6.20636719 3.05347656 5.44335938 3.04882812 C3.62887101 3.03712175 1.81442466 3.01918898 0 3 C0 2.01 0 1.02 0 0 Z " fill="#292929" transform="translate(328,300)"/>
<path d="M0 0 C1.27450447 0.59638333 2.54446877 1.20247416 3.8125 1.8125 C4.52019531 2.14894531 5.22789062 2.48539063 5.95703125 2.83203125 C8.14416705 4.08242055 9.53354065 4.94140565 11 7 C11.87997923 12.48415629 9.77732339 15.88061519 7 20.375 C6.6184375 21.01566406 6.236875 21.65632813 5.84375 22.31640625 C4.90749848 23.88462755 3.95532843 25.44332645 3 27 C2 24 2 24 2.92578125 21.58984375 C3.38339844 20.71457031 3.84101563 19.83929688 4.3125 18.9375 C4.76238281 18.05964844 5.21226562 17.18179688 5.67578125 16.27734375 C7 14 7 14 9 12 C8.67958603 9.39719432 8.67958603 9.39719432 8 7 C7.01 6.67 6.02 6.34 5 6 C5 5.34 5 4.68 5 4 C3.02 3.34 1.04 2.68 -1 2 C-0.67 1.34 -0.34 0.68 0 0 Z " fill="#202020" transform="translate(456,230)"/>
<path d="M0 0 C0.33 0.66 0.66 1.32 1 2 C-0.34178633 4.56186195 -1.73126612 6.98398311 -3.25 9.4375 C-3.65863281 10.11876953 -4.06726563 10.80003906 -4.48828125 11.50195312 C-8.17732842 17.55744695 -8.17732842 17.55744695 -11 20 C-14.7255895 19.92488731 -18.12485161 18.71105807 -21 16.375 C-21.33 15.92125 -21.66 15.4675 -22 15 C-18.07103605 15 -14.80106772 16.00299863 -11 17 C-7.51112132 12.44507506 -5.01860192 8.15308567 -2.89453125 2.8203125 C-2 1 -2 1 0 0 Z " fill="#1C1C1C" transform="translate(457,257)"/>
<path d="M0 0 C6.2049785 2.5279542 11.09174657 8.66812161 15 14 C15 14.66 15 15.32 15 16 C15.66 16 16.32 16 17 16 C17 16.66 17 17.32 17 18 C18.32 18.66 19.64 19.32 21 20 C20.67 20.99 20.34 21.98 20 23 C15.07231095 18.20711095 10.47244135 13.21784824 6 8 C5.41476563 7.33097656 4.82953125 6.66195313 4.2265625 5.97265625 C0 1.12103873 0 1.12103873 0 0 Z " fill="#202020" transform="translate(93,281)"/>
<path d="M0 0 C0.33 0 0.66 0 1 0 C1.35858439 3.85478218 1.2754818 5.57759458 -0.875 8.875 C-1.57625 9.57625 -2.2775 10.2775 -3 11 C-3.66 11 -4.32 11 -5 11 C-4.73606499 14.43230448 -4.73606499 14.43230448 -4 18 C-3.01 18.66 -2.02 19.32 -1 20 C-1 20.66 -1 21.32 -1 22 C-2.65 21.67 -4.3 21.34 -6 21 C-7.63440571 14.46237715 -7.04834491 11.31505552 -3.625 5.4375 C-2.46819713 3.59168506 -1.27376752 1.76712818 0 0 Z " fill="#1B1B1B" transform="translate(333,187)"/>
<path d="M0 0 C2.84323792 1.15835619 4.31388887 2.3217361 6.5 4.5625 C8.86027002 6.86376327 9.81596775 7.64621864 13 8 C13.45375 7.195625 13.9075 6.39125 14.375 5.5625 C16 3 16 3 18 2 C19.70702735 1.93003986 21.41668003 1.91559846 23.125 1.9375 C24.03507812 1.94652344 24.94515625 1.95554687 25.8828125 1.96484375 C26.93082031 1.98224609 26.93082031 1.98224609 28 2 C27.67 2.66 27.34 3.32 27 4 C25.824375 3.835 24.64875 3.67 23.4375 3.5 C20.35572153 3.45605307 19.29198731 3.75112857 16.91015625 5.78125 C15.17451352 7.79729309 13.54591842 9.83571421 12 12 C6.84075403 9.49854741 3.46633474 5.45528903 0 1 C0 0.67 0 0.34 0 0 Z " fill="#1F1F1F" transform="translate(199,92)"/>
<path d="M0 0 C1.53961831 3.07923663 1.46001699 6.36505274 1.6875 9.75 C1.74744141 10.45382813 1.80738281 11.15765625 1.86914062 11.8828125 C2.17775605 16.43171928 1.64954886 19.67704436 0 24 C0 24.99 0 25.98 0 27 C-0.66 27.33 -1.32 27.66 -2 28 C-2.05796132 23.89589245 -2.09358313 19.79188984 -2.125 15.6875 C-2.14175781 14.52025391 -2.15851563 13.35300781 -2.17578125 12.15039062 C-2.18222656 11.03212891 -2.18867188 9.91386719 -2.1953125 8.76171875 C-2.20578613 7.73006592 -2.21625977 6.69841309 -2.22705078 5.63549805 C-2 3 -2 3 0 0 Z " fill="#232323" transform="translate(443,208)"/>
<path d="M0 0 C3.42958438 1.41785848 5.02393304 3.03190342 7.125 6.0625 C9.11074647 9.04627522 9.11074647 9.04627522 12 11 C12 11.66 12 12.32 12 13 C12.721875 13.268125 13.44375 13.53625 14.1875 13.8125 C16.99766383 14.99901362 19.48416557 16.27485639 22 18 C22 18.66 22 19.32 22 20 C12.3462557 16.48339963 5.80631863 9.25857854 0 1 C0 0.67 0 0.34 0 0 Z " fill="#1E1E1E" transform="translate(100,218)"/>
<path d="M0 0 C0.66 0.33 1.32 0.66 2 1 C2 1.66 2 2.32 2 3 C2.66 3.33 3.32 3.66 4 4 C2.625 6.5 2.625 6.5 1 9 C0.34 9 -0.32 9 -1 9 C-1 9.66 -1 10.32 -1 11 C-2.42578125 12.296875 -2.42578125 12.296875 -4.3125 13.75 C-7.6165969 16.46551284 -9.37496951 18.9852188 -11 23 C-11.33 23 -11.66 23 -12 23 C-12.33984375 20.8359375 -12.33984375 20.8359375 -12 18 C-9.78997089 15.53146667 -7.50313768 13.43293848 -4.99804688 11.28125 C-1.14136347 7.75225865 -0.25041495 5.17524233 0 0 Z " fill="#212121" transform="translate(258,373)"/>
<path d="M0 0 C2.55070149 2.55070149 3.70869462 5.43135295 5.125 8.6875 C5.66382813 9.88761719 6.20265625 11.08773438 6.7578125 12.32421875 C8.04313181 16.12763217 8.23518975 19.01711268 8 23 C5.43383368 19.15075052 5.44902324 16.5650696 5 12 C4.34 12 3.68 12 3 12 C2.29773859 10.75823305 1.61370891 9.50614401 0.9375 8.25 C0.36322266 7.20585937 0.36322266 7.20585937 -0.22265625 6.140625 C-1.1312406 3.63859372 -0.88336837 2.4667645 0 0 Z M-1 8 C1 9 1 9 1 9 Z " fill="#232323" transform="translate(283,302)"/>
<path d="M0 0 C0 0.66 0 1.32 0 2 C-7.2483242 7.1684786 -15.88614778 12 -25 12 C-25 11.34 -25 10.68 -25 10 C-24.26136719 9.78085937 -23.52273437 9.56171875 -22.76171875 9.3359375 C-16.09585278 7.25232501 -10.20798609 4.70148751 -4.1796875 1.171875 C-2 0 -2 0 0 0 Z " fill="#1D1D1D" transform="translate(186,254)"/>
<path d="M0 0 C1.9375 0.8125 1.9375 0.8125 4 2 C4.33 2.99 4.66 3.98 5 5 C5.99 5.33 6.98 5.66 8 6 C8 6.66 8 7.32 8 8 C8.99 8 9.98 8 11 8 C15 12.34285714 15 12.34285714 15 15 C10.96918 13.387672 8.24055863 10.53765404 5.25 7.5 C4.74339844 7.00113281 4.23679688 6.50226563 3.71484375 5.98828125 C0 2.25341139 0 2.25341139 0 0 Z " fill="#1E1E1E" transform="translate(162,360)"/>
<path d="M0 0 C2.25 0.125 2.25 0.125 5 1 C7.25 4 7.25 4 9 7 C9.33 7.33 9.66 7.66 10 8 C10.375 10.8125 10.375 10.8125 10 14 C7.8125 16.4375 7.8125 16.4375 5 18 C2.1875 17.75 2.1875 17.75 0 17 C0 16.67 0 16.34 0 16 C2.31 15.34 4.62 14.68 7 14 C7.81444835 12.21763034 7.81444835 12.21763034 8 10 C6.6242612 7.83600892 6.6242612 7.83600892 4.625 5.875 C1.05063291 2.10126582 1.05063291 2.10126582 0 0 Z " fill="#171717" transform="translate(253,261)"/>
<path d="M0 0 C0 0.66 0 1.32 0 2 C-0.721875 2.4125 -1.44375 2.825 -2.1875 3.25 C-4.72840709 4.83100886 -5.88738497 5.91056879 -7.6875 8.1875 C-8.8321875 9.5796875 -8.8321875 9.5796875 -10 11 C-10.66 11 -11.32 11 -12 11 C-12.28875 11.7425 -12.5775 12.485 -12.875 13.25 C-13.82302644 15.56739797 -14.84845911 17.77917115 -16 20 C-16.66 20 -17.32 20 -18 20 C-15.97032973 13.50505514 -7.61615406 0 0 0 Z " fill="#202020" transform="translate(117,152)"/>
<path d="M0 0 C0.66 0 1.32 0 2 0 C1.34 2.31 0.68 4.62 0 7 C0.66 7 1.32 7 2 7 C2 7.99 2 8.98 2 10 C4.64 10.33 7.28 10.66 10 11 C9.67 11.66 9.34 12.32 9 13 C6.1875 13.875 6.1875 13.875 3 14 C-0.0251704 11.95596595 -0.85375688 10.50140499 -1.875 7 C-2.0040057 3.9038633 -1.67059759 2.55503162 0 0 Z " fill="#1A1A1A" transform="translate(293,363)"/>
<path d="M0 0 C0.66 0.33 1.32 0.66 2 1 C-0.25566543 5.83528281 -2.65526634 9.81908292 -6 14 C-6 14.99 -6 15.98 -6 17 C-7.32 17.33 -8.64 17.66 -10 18 C-3.84965831 5.33029613 -3.84965831 5.33029613 0 0 Z " fill="#212121" transform="translate(451,242)"/>
<path d="M0 0 C1.61189613 4.02974033 0.22409257 6.98769658 -1 11 C-1.165 12.27875 -1.33 13.5575 -1.5 14.875 C-1.665 15.90625 -1.83 16.9375 -2 18 C-2.66 18.33 -3.32 18.66 -4 19 C-4.19548629 12.84218201 -4.12086994 6.8651218 -2 1 C-1.34 0.67 -0.68 0.34 0 0 Z " fill="#1E1E1E" transform="translate(375,207)"/>
<path d="M0 0 C0.99 0.33 1.98 0.66 3 1 C1.44716875 2.63424183 -0.1176881 4.25706248 -1.6875 5.875 C-2.55761719 6.77992188 -3.42773438 7.68484375 -4.32421875 8.6171875 C-6.87943979 10.89263982 -8.76901814 11.98704352 -12 13 C-12 11 -12 11 -10.3203125 9.2734375 C-9.59585938 8.64695312 -8.87140625 8.02046875 -8.125 7.375 C-7.04605469 6.42753906 -7.04605469 6.42753906 -5.9453125 5.4609375 C-4 4 -4 4 -2 4 C-1.34 2.68 -0.68 1.36 0 0 Z " fill="#202020" transform="translate(227,389)"/>
<path d="M0 0 C0.99 0.33 1.98 0.66 3 1 C3.05423638 2.91635217 3.09289963 4.83314925 3.125 6.75 C3.14820313 7.81734375 3.17140625 8.8846875 3.1953125 9.984375 C3.00487687 12.92470106 2.52670104 14.52361878 1 17 C0.01 16.67 -0.98 16.34 -2 16 C-1.34 15.01 -0.68 14.02 0 13 C0.24246783 9.79620876 0.24246783 9.79620876 0.125 6.3125 C0.10695313 5.13300781 0.08890625 3.95351563 0.0703125 2.73828125 C0.04710937 1.83464844 0.02390625 0.93101562 0 0 Z " fill="#1F1F1F" transform="translate(305,317)"/>
<path d="M0 0 C1.9375 0.3125 1.9375 0.3125 4 1 C4.33 1.99 4.66 2.98 5 4 C7.00016466 5.20882096 7.00016466 5.20882096 9 6 C9 6.66 9 7.32 9 8 C10.32 8.66 11.64 9.32 13 10 C12.67 10.66 12.34 11.32 12 12 C8.63983107 10.87994369 7.30935087 9.62788203 5 7 C5 6.34 5 5.68 5 5 C4.34 5 3.68 5 3 5 C3 4.34 3 3.68 3 3 C2.34 3 1.68 3 1 3 C0.67 2.01 0.34 1.02 0 0 Z " fill="#1C1C1C" transform="translate(189,388)"/>
<path d="M0 0 C1.34882814 2.69765628 0.80338265 4.15164334 0 7 C-0.99 7.495 -0.99 7.495 -2 8 C-2.91031272 10.34386809 -2.91031272 10.34386809 -3.625 13.0625 C-3.88539063 13.98160156 -4.14578125 14.90070313 -4.4140625 15.84765625 C-4.60742188 16.55792969 -4.80078125 17.26820313 -5 18 C-5.33 18 -5.66 18 -6 18 C-5.70525904 11.63359524 -4.73796238 4.73796238 0 0 Z " fill="#1D1D1D" transform="translate(300,260)"/>
<path d="M0 0 C3.52888584 6.44985438 4.31545811 13.74446344 4 21 C3.67 21 3.34 21 3 21 C2.95101563 20.21753906 2.90203125 19.43507812 2.8515625 18.62890625 C2.77679688 17.61699219 2.70203125 16.60507813 2.625 15.5625 C2.52058594 14.04849609 2.52058594 14.04849609 2.4140625 12.50390625 C2.27742188 11.67761719 2.14078125 10.85132813 2 10 C1.34 9.67 0.68 9.34 0 9 C-1.25 7.25 -1.25 7.25 -2 5 C-1.125 2.25 -1.125 2.25 0 0 Z " fill="#212121" transform="translate(293,162)"/>
<path d="M0 0 C9.59453303 1.74259681 9.59453303 1.74259681 13 5 C12.21625 4.95875 11.4325 4.9175 10.625 4.875 C7.83883881 4.71271266 7.83883881 4.71271266 6 7 C6 6.34 6 5.68 6 5 C5.195625 4.731875 4.39125 4.46375 3.5625 4.1875 C2.716875 3.795625 1.87125 3.40375 1 3 C0.67 2.01 0.34 1.02 0 0 Z " fill="#272727" transform="translate(232,96)"/>
<path d="M0 0 C2.4375 0.75 2.4375 0.75 5 2 C5.8125 4.125 5.8125 4.125 6 6 C6.66 6 7.32 6 8 6 C9.38232443 7.62626404 10.71937515 9.2925002 12 11 C9 11 9 11 6.73828125 9.1015625 C5.93777344 8.28429687 5.13726562 7.46703125 4.3125 6.625 C3.50425781 5.81289063 2.69601563 5.00078125 1.86328125 4.1640625 C0 2 0 2 0 0 Z " fill="#181818" transform="translate(178,376)"/>
<path d="M0 0 C-2.46278801 1.231394 -4.2795055 1.07159196 -7 1 C-8.32 3.31 -9.64 5.62 -11 8 C-11.33 8 -11.66 8 -12 8 C-12 5.36 -12 2.72 -12 0 C-7.22144261 -2.04795317 -4.77855739 -2.04795317 0 0 Z " fill="#1C1C1C" transform="translate(81,225)"/>
<path d="M0 0 C1.9375 2.5 1.9375 2.5 3 5 C2.67 5.66 2.34 6.32 2 7 C1.67 6.01 1.34 5.02 1 4 C0.34 4 -0.32 4 -1 4 C-1.66 3.01 -2.32 2.02 -3 1 C-6.20100846 0.66305174 -8.92859432 1.08995387 -12 2 C-8.05332476 -2.32254908 -5.28602907 -2.42276332 0 0 Z " fill="#222222" transform="translate(450,170)"/>
<path d="M0 0 C4.32239956 3.34003602 7.17477391 6.32751069 10 11 C9.67 11.66 9.34 12.32 9 13 C8.34 13 7.68 13 7 13 C7 12.34 7 11.68 7 11 C6.34 10.67 5.68 10.34 5 10 C4.375 7.4375 4.375 7.4375 4 5 C3.01 4.67 2.02 4.34 1 4 C0.3125 1.9375 0.3125 1.9375 0 0 Z " fill="#222222" transform="translate(270,120)"/>
<path d="M0 0 C0 0.66 0 1.32 0 2 C-3.46153846 5 -3.46153846 5 -6 5 C-6 5.66 -6 6.32 -6 7 C-7.65 7.66 -9.3 8.32 -11 9 C-9.55936614 4.67809842 -4.74032109 0 0 0 Z " fill="#222222" transform="translate(387,198)"/>
<path d="M0 0 C6.26418531 1.48362284 10.91513505 5.24162156 16 9 C15.01 9.495 15.01 9.495 14 10 C11.7578125 8.85546875 11.7578125 8.85546875 9.125 7.1875 C6.13408284 5.30813265 3.1901708 3.52089538 0 2 C0 1.34 0 0.68 0 0 Z " fill="#212121" transform="translate(245,101)"/>
<path d="M0 0 C-3.49799176 1.74899588 -7.71647498 1.36915932 -11.58984375 1.51757812 C-15.74774557 1.61361553 -15.74774557 1.61361553 -19 4 C-19.33 2.68 -19.66 1.36 -20 0 C-17.22949974 -0.1946838 -14.45886998 -0.38102792 -11.6875 -0.5625 C-10.90181641 -0.61857422 -10.11613281 -0.67464844 -9.30664062 -0.73242188 C-8.1706543 -0.80493164 -8.1706543 -0.80493164 -7.01171875 -0.87890625 C-6.31522217 -0.9260376 -5.61872559 -0.97316895 -4.90112305 -1.02172852 C-3 -1 -3 -1 0 0 Z " fill="#1E1E1E" transform="translate(270,359)"/>
<path d="M0 0 C1.8871875 0.0309375 1.8871875 0.0309375 3.8125 0.0625 C3.8125 0.3925 3.8125 0.7225 3.8125 1.0625 C1.8325 1.0625 -0.1475 1.0625 -2.1875 1.0625 C-2.5175 1.7225 -2.8475 2.3825 -3.1875 3.0625 C-4.1775 3.5575 -4.1775 3.5575 -5.1875 4.0625 C-5.1875 6.3725 -5.1875 8.6825 -5.1875 11.0625 C-6.1775 10.7325 -7.1675 10.4025 -8.1875 10.0625 C-7.8575 7.0925 -7.5275 4.1225 -7.1875 1.0625 C-4.43671116 0.14557039 -2.82801087 -0.04636083 0 0 Z " fill="#1D1D1D" transform="translate(237.1875,346.9375)"/>
<path d="M0 0 C0.33 0 0.66 0 1 0 C1.3125 2.6875 1.3125 2.6875 1 6 C-1.5 8.875 -1.5 8.875 -4 11 C-3.49172849 6.62886504 -2.54826592 3.61004338 0 0 Z " fill="#242424" transform="translate(333,187)"/>
<path d="M0 0 C3.67056937 1.47797262 5.41085783 3.47615477 7.75 6.625 C8.67039063 7.85089844 8.67039063 7.85089844 9.609375 9.1015625 C10.29773438 10.04128906 10.29773438 10.04128906 11 11 C10.67 11.66 10.34 12.32 10 13 C8.99406757 11.8803014 7.9954151 10.7540588 7 9.625 C6.1646875 8.68527344 6.1646875 8.68527344 5.3125 7.7265625 C4 6 4 6 4 4 C2.68 3.34 1.36 2.68 0 2 C0 1.34 0 0.68 0 0 Z " fill="#1F1F1F" transform="translate(176,156)"/>
<path d="M0 0 C2.54344286 2.27301934 3.87616437 4.45086481 5.25 7.5625 C5.60578125 8.34753906 5.9615625 9.13257813 6.328125 9.94140625 C7 12 7 12 6 14 C4 10.25 4 10.25 4 8 C3.34 7.67 2.68 7.34 2 7 C0.95191959 5.02477154 -0.0520411 3.02518491 -1 1 C-0.67 0.67 -0.34 0.34 0 0 Z " fill="#1F1F1F" transform="translate(282,136)"/>
<path d="M0 0 C1.12894876 0.93274109 2.25300876 1.87140122 3.375 2.8125 C4.00148437 3.33457031 4.62796875 3.85664062 5.2734375 4.39453125 C7 6 7 6 9 9 C7.68 8.67 6.36 8.34 5 8 C5 7.34 5 6.68 5 6 C3.35 5.67 1.7 5.34 0 5 C0 3.35 0 1.7 0 0 Z " fill="#272727" transform="translate(162,79)"/>
<path d="M0 0 C0.33 0 0.66 0 1 0 C1 4.62 1 9.24 1 14 C-0.32 13.67 -1.64 13.34 -3 13 C-2.125 9.125 -2.125 9.125 -1 8 C-0.76924918 6.65252916 -0.58846937 5.29622435 -0.4375 3.9375 C-0.2209375 1.9884375 -0.2209375 1.9884375 0 0 Z " fill="#252525" transform="translate(455,216)"/>
<path d="M0 0 C2.4375 2 2.4375 2 4 4 C2.989375 3.649375 1.97875 3.29875 0.9375 2.9375 C-2.92337378 1.8107552 -6.05394586 2.19468283 -10 3 C-7.29602194 -0.81738079 -4.39903544 -0.54023242 0 0 Z " fill="#1F1F1F" transform="translate(364,253)"/>
<path d="M0 0 C1.98 0.99 1.98 0.99 4 2 C4 2.66 4 3.32 4 4 C5.32 4.66 6.64 5.32 8 6 C8 6.66 8 7.32 8 8 C4.67689517 6.83242263 2.16638868 5.85051143 0 3 C0 2.01 0 1.02 0 0 Z " fill="#1F1F1F" transform="translate(262,112)"/>
<path d="M0 0 C1.32 0 2.64 0 4 0 C5.625 2.3125 5.625 2.3125 7 5 C7.99 6.485 7.99 6.485 9 8 C8.01 8.66 7.02 9.32 6 10 C5.566875 9.0925 5.13375 8.185 4.6875 7.25 C3.29482729 4.56781551 1.88887243 2.33860395 0 0 Z " fill="#1A1A1A" transform="translate(116,307)"/>
<path d="M0 0 C0.33 0.66 0.66 1.32 1 2 C-1.66666667 4.66666667 -4.33333333 7.33333333 -7 10 C-7.99 9.67 -8.98 9.34 -10 9 C-6.7 6.03 -3.4 3.06 0 0 Z " fill="#1D1D1D" transform="translate(196,244)"/>
<path d="M0 0 C0.66 0 1.32 0 2 0 C3.65 2.97 5.3 5.94 7 9 C6.01 9 5.02 9 4 9 C0 2.25 0 2.25 0 0 Z " fill="#1E1E1E" transform="translate(252,363)"/>
<path d="M0 0 C0.99 0.33 1.98 0.66 3 1 C2.125 8.875 2.125 8.875 1 10 C-0.66617115 10.04063832 -2.33388095 10.042721 -4 10 C-3.01 9.67 -2.02 9.34 -1 9 C-1 8.34 -1 7.68 -1 7 C-0.34 7 0.32 7 1 7 C0.67 4.69 0.34 2.38 0 0 Z " fill="#131313" transform="translate(354,291)"/>
<path d="M0 0 C0.66 0.66 1.32 1.32 2 2 C1.875 5 1.875 5 1 8 C-1.0546875 9.1875 -1.0546875 9.1875 -3 10 C-2.69201674 8.51988629 -2.378482 7.04092675 -2.0625 5.5625 C-1.88847656 4.73878906 -1.71445312 3.91507813 -1.53515625 3.06640625 C-1 1 -1 1 0 0 Z " fill="#1F1F1F" transform="translate(467,201)"/>
<path d="M0 0 C3.58237455 4.67266246 4.11073636 7.02023637 4 13 C1.91620491 9.15299368 0.50313376 5.09945571 -1 1 C-0.67 0.67 -0.34 0.34 0 0 Z " fill="#242424" transform="translate(187,169)"/>
<path d="M0 0 C0.66 0.33 1.32 0.66 2 1 C2.625 3.0625 2.625 3.0625 3 5 C1.03533587 6.06775224 -0.96855359 7.06553465 -3 8 C-3.66 7.67 -4.32 7.34 -5 7 C-4.360625 6.21625 -3.72125 5.4325 -3.0625 4.625 C-1.01857687 2.20460719 -1.01857687 2.20460719 0 0 Z " fill="#222222" transform="translate(275,350)"/>
<path d="M0 0 C4.455 1.98 4.455 1.98 9 4 C9 4.33 9 4.66 9 5 C2.47692308 4.38461538 2.47692308 4.38461538 0.0625 2.4375 C-0.288125 1.963125 -0.63875 1.48875 -1 1 C-0.67 0.67 -0.34 0.34 0 0 Z " fill="#222222" transform="translate(436,271)"/>
<path d="M0 0 C1.98 1.65 3.96 3.3 6 5 C5.67 6.32 5.34 7.64 5 9 C4.16094435 7.87926138 3.32892169 6.75325453 2.5 5.625 C2.0359375 4.99851562 1.571875 4.37203125 1.09375 3.7265625 C0 2 0 2 0 0 Z " fill="#1D1D1D" transform="translate(124,319)"/>
<path d="M0 0 C1.33332095 2.6666419 0.67102033 4.16680303 0 7 C-0.66 7 -1.32 7 -2 7 C-2.33 8.65 -2.66 10.3 -3 12 C-3.88336837 9.5332355 -4.1312406 8.36140628 -3.22265625 5.859375 C-2.83980469 5.16328125 -2.45695312 4.4671875 -2.0625 3.75 C-1.68222656 3.04359375 -1.30195313 2.3371875 -0.91015625 1.609375 C-0.60980469 1.07828125 -0.30945313 0.5471875 0 0 Z " fill="#181818" transform="translate(285,256)"/>
<path d="M0 0 C0.99 0.33 1.98 0.66 3 1 C2.34 3.97 1.68 6.94 1 10 C0.67 10 0.34 10 0 10 C0 6.7 0 3.4 0 0 Z " fill="#272727" transform="translate(216,202)"/>
<path d="M0 0 C1.90318884 2.85478326 2.4619099 4.41941308 3.125 7.6875 C3.29257812 8.49574219 3.46015625 9.30398437 3.6328125 10.13671875 C3.75398438 10.75160156 3.87515625 11.36648437 4 12 C0.67617413 7.66457495 -0.12018668 5.52858726 0 0 Z " fill="#1E1E1E" transform="translate(289,150)"/>
<path d="M0 0 C0.7425 0.61875 1.485 1.2375 2.25 1.875 C4.48801188 3.60437281 6.43739987 4.86106661 9 6 C3.375 6.25 3.375 6.25 0 4 C0 2.68 0 1.36 0 0 Z " fill="#252525" transform="translate(138,138)"/>
<path d="M0 0 C2.97 0.33 5.94 0.66 9 1 C8.67 1.66 8.34 2.32 8 3 C2.55072464 4.27536232 2.55072464 4.27536232 0 3 C0 2.01 0 1.02 0 0 Z " fill="#242424" transform="translate(294,373)"/>
<path d="M0 0 C2.31 0 4.62 0 7 0 C5.68 0.33 4.36 0.66 3 1 C3.33 2.65 3.66 4.3 4 6 C3.34 5.67 2.68 5.34 2 5 C2 4.34 2 3.68 2 3 C1.34 3 0.68 3 0 3 C0 2.01 0 1.02 0 0 Z " fill="#171717" transform="translate(245,251)"/>
<path d="M0 0 C4.42857143 5.14285714 4.42857143 5.14285714 5 9 C2 8 2 8 0.8125 6.1875 C0 4 0 4 0 0 Z " fill="#202020" transform="translate(462,192)"/>
<path d="M0 0 C6.75 1.875 6.75 1.875 9 3 C7.35 3.66 5.7 4.32 4 5 C2.64567325 3.68799596 1.31266518 2.35368596 0 1 C0 0.67 0 0.34 0 0 Z M9 1 C11 2 11 2 11 2 Z " fill="#222222" transform="translate(427,171)"/>
<path d="M0 0 C0 0.99 0 1.98 0 3 C-3.6441774 5.4294516 -5.71241272 5.16179575 -10 5 C-10 4.67 -10 4.34 -10 4 C-8.906875 3.71125 -7.81375 3.4225 -6.6875 3.125 C-2.95986155 2.18106796 -2.95986155 2.18106796 0 0 Z " fill="#1A1A1A" transform="translate(417,288)"/>
<path d="M0 0 C0.66 0.66 1.32 1.32 2 2 C-1.96 3.98 -1.96 3.98 -6 6 C-3.75 1.5 -3.75 1.5 0 0 Z " fill="#222222" transform="translate(462,210)"/>
<path d="M0 0 C4.67692308 1.47692308 4.67692308 1.47692308 6.3125 4.125 C6.539375 4.74375 6.76625 5.3625 7 6 C6.01 7.485 6.01 7.485 5 9 C4.731875 8.2575 4.46375 7.515 4.1875 6.75 C3.05770579 4.13363446 1.79106798 2.19812889 0 0 Z " fill="#212121" transform="translate(89,188)"/>
<path d="M0 0 C0.99 0 1.98 0 3 0 C2.74438677 2.3431213 2.40729228 4.67843403 2 7 C1.01 7.495 1.01 7.495 0 8 C0 5.36 0 2.72 0 0 Z " fill="#161616" transform="translate(69,160)"/>
<path d="M0 0 C3.7952131 1.49097658 5.61042731 3.75700849 8 7 C5.5625 6.1875 5.5625 6.1875 3 5 C2.67 4.01 2.34 3.02 2 2 C1.34 2 0.68 2 0 2 C0 1.34 0 0.68 0 0 Z " fill="#262626" transform="translate(113,114)"/>
<path d="M0 0 C0 0.33 0 0.66 0 1 C-1.093125 1.309375 -2.18625 1.61875 -3.3125 1.9375 C-5.55407994 2.58337897 -7.7869351 3.2623117 -10 4 C-9.1875 2.0625 -9.1875 2.0625 -8 0 C-4.71023192 -1.09658936 -3.28696233 -0.79953138 0 0 Z " fill="#191919" transform="translate(114,113)"/>
<path d="M0 0 C1.98 1.65 3.96 3.3 6 5 C5.34 5.66 4.68 6.32 4 7 C2.35 5.02 0.7 3.04 -1 1 C-0.67 0.67 -0.34 0.34 0 0 Z " fill="#242424" transform="translate(156,73)"/>
<path d="M0 0 C4 1 4 1 4 1 Z " fill="#000000" transform="translate(386,365)"/>
<path d="M0 0 C4 1 4 1 4 1 Z " fill="#000000" transform="translate(295,365)"/>
<path d="M0 0 C0.99 0.33 1.98 0.66 3 1 C2.01 1.33 1.02 1.66 0 2 C0 1.34 0 0.68 0 0 Z " fill="#000000" transform="translate(408,294)"/>
<path d="M0 0 C4 1 4 1 4 1 Z " fill="#000000" transform="translate(442,277)"/>
<path d="M0 0 C0.99 0.495 0.99 0.495 2 1 C1.34 1.66 0.68 2.32 0 3 C0 2.01 0 1.02 0 0 Z " fill="#000000" transform="translate(420,276)"/>
<path d="M0 0 C0.33 0.66 0.66 1.32 1 2 C0.34 1.67 -0.32 1.34 -1 1 C-0.67 0.67 -0.34 0.34 0 0 Z " fill="#000000" transform="translate(266,330)"/>
<path d="M0 0 C3 1 3 1 3 1 Z " fill="#000000" transform="translate(387,328)"/>
<path d="M0 0 C3 1 3 1 3 1 Z " fill="#000000" transform="translate(329,328)"/>
<path d="M0 0 C0.66 0 1.32 0 2 0 C1.67 0.66 1.34 1.32 1 2 C0.67 1.34 0.34 0.68 0 0 Z " fill="#000000" transform="translate(447,242)"/>
<path d="M0 0 C0.66 0 1.32 0 2 0 C1.67 0.66 1.34 1.32 1 2 C0.67 1.34 0.34 0.68 0 0 Z " fill="#000000" transform="translate(456,228)"/>
<path d="" fill="#000000" transform="translate(0,0)"/>
<path d="M0 0 C2 1 2 1 2 1 Z " fill="#000000" transform="translate(295,372)"/>
<path d="" fill="#000000" transform="translate(0,0)"/>
<path d="" fill="#000000" transform="translate(0,0)"/>
<path d="" fill="#000000" transform="translate(0,0)"/>
<path d="M0 0 C2 1 2 1 2 1 Z " fill="#000000" transform="translate(351,291)"/>
<path d="M0 0 C2 1 2 1 2 1 Z " fill="#000000" transform="translate(323,291)"/>
<path d="M0 0 C2 1 2 1 2 1 Z " fill="#000000" transform="translate(253,275)"/>
<path d="M0 0 C2 1 2 1 2 1 Z " fill="#000000" transform="translate(429,271)"/>
<path d="M0 0 C2 1 2 1 2 1 Z " fill="#000000" transform="translate(226,243)"/>
<path d="" fill="#000000" transform="translate(0,0)"/>
<path d="M0 0 C2 1 2 1 2 1 Z " fill="#000000" transform="translate(411,199)"/>
<path d="" fill="#000000" transform="translate(0,0)"/>
<path d="M0 0 C2 1 2 1 2 1 Z " fill="#000000" transform="translate(361,170)"/>
<path d="M0 0 C2 1 2 1 2 1 Z " fill="#000000" transform="translate(405,164)"/>
<path d="M0 0 C2 1 2 1 2 1 Z " fill="#000000" transform="translate(389,164)"/>
<path d="" fill="#000000" transform="translate(0,0)"/>
<path d="" fill="#FFFFFF" transform="translate(0,0)"/>
<path d="" fill="#FFFFFF" transform="translate(0,0)"/>
<path d="" fill="#FFFFFF" transform="translate(0,0)"/>
<path d="" fill="#FFFFFF" transform="translate(0,0)"/>
<path d="" fill="#FFFFFF" transform="translate(0,0)"/>
<path d="" fill="#FFFFFF" transform="translate(0,0)"/>
<path d="" fill="#FFFFFF" transform="translate(0,0)"/>
<path d="" fill="#FFFFFF" transform="translate(0,0)"/>
<path d="" fill="#FFFFFF" transform="translate(0,0)"/>
<path d="" fill="#FFFFFF" transform="translate(0,0)"/>
<path d="" fill="#FFFFFF" transform="translate(0,0)"/>
<path d="" fill="#FFFFFF" transform="translate(0,0)"/>
<path d="" fill="#FFFFFF" transform="translate(0,0)"/>
<path d="" fill="#000000" transform="translate(0,0)"/>
<path d="" fill="#000000" transform="translate(0,0)"/>
<path d="" fill="#000000" transform="translate(0,0)"/>
<path d="" fill="#000000" transform="translate(0,0)"/>
<path d="" fill="#000000" transform="translate(0,0)"/>
<path d="" fill="#000000" transform="translate(0,0)"/>
<path d="" fill="#000000" transform="translate(0,0)"/>
<path d="" fill="#000000" transform="translate(0,0)"/>
<path d="" fill="#000000" transform="translate(0,0)"/>
<path d="" fill="#FFFFFF" transform="translate(0,0)"/>
<path d="" fill="#FFFFFF" transform="translate(0,0)"/>
<path d="" fill="#FFFFFF" transform="translate(0,0)"/>
<path d="" fill="#FFFFFF" transform="translate(0,0)"/>
<path d="" fill="#FFFFFF" transform="translate(0,0)"/>
<path d="" fill="#FFFFFF" transform="translate(0,0)"/>
<path d="" fill="#000000" transform="translate(0,0)"/>
<path d="" fill="#000000" transform="translate(0,0)"/>
<path d="" fill="#000000" transform="translate(0,0)"/>
<path d="" fill="#000000" transform="translate(0,0)"/>
<path d="" fill="#000000" transform="translate(0,0)"/>
<path d="" fill="#FFFFFF" transform="translate(0,0)"/>
<path d="" fill="#FFFFFF" transform="translate(0,0)"/>
<path d="" fill="#000000" transform="translate(0,0)"/>
<path d="" fill="#000000" transform="translate(0,0)"/>
<path d="" fill="#FFFFFF" transform="translate(0,0)"/>
<path d="" fill="#000000" transform="translate(0,0)"/>
<path d="" fill="#000000" transform="translate(0,0)"/>
<path d="" fill="#000000" transform="translate(0,0)"/>
<path d="" fill="#000000" transform="translate(0,0)"/>
<path d="" fill="#000000" transform="translate(0,0)"/>
<path d="" fill="#000000" transform="translate(0,0)"/>
<path d="" fill="#000000" transform="translate(0,0)"/>
<path d="" fill="#000000" transform="translate(0,0)"/>
<path d="" fill="#000000" transform="translate(0,0)"/>
<path d="" fill="#000000" transform="translate(0,0)"/>
<path d="" fill="#000000" transform="translate(0,0)"/>
<path d="" fill="#000000" transform="translate(0,0)"/>
<path d="" fill="#000000" transform="translate(0,0)"/>
<path d="" fill="#000000" transform="translate(0,0)"/>
<path d="" fill="#000000" transform="translate(0,0)"/>
<path d="" fill="#000000" transform="translate(0,0)"/>
<path d="" fill="#000000" transform="translate(0,0)"/>
<path d="" fill="#000000" transform="translate(0,0)"/>
<path d="" fill="#000000" transform="translate(0,0)"/>
<path d="" fill="#000000" transform="translate(0,0)"/>
<path d="" fill="#000000" transform="translate(0,0)"/>
<path d="" fill="#000000" transform="translate(0,0)"/>
<path d="" fill="#FFFFFF" transform="translate(0,0)"/>
<path d="" fill="#000000" transform="translate(0,0)"/>
<path d="" fill="#000000" transform="translate(0,0)"/>
<path d="" fill="#000000" transform="translate(0,0)"/>
<path d="" fill="#000000" transform="translate(0,0)"/>
<path d="" fill="#000000" transform="translate(0,0)"/>
<path d="" fill="#000000" transform="translate(0,0)"/>
<path d="" fill="#000000" transform="translate(0,0)"/>
<path d="" fill="#000000" transform="translate(0,0)"/>
<path d="" fill="#000000" transform="translate(0,0)"/>
<path d="" fill="#000000" transform="translate(0,0)"/>
<path d="" fill="#000000" transform="translate(0,0)"/>
<path d="" fill="#000000" transform="translate(0,0)"/>
<path d="" fill="#000000" transform="translate(0,0)"/>
<path d="" fill="#000000" transform="translate(0,0)"/>
<path d="" fill="#000000" transform="translate(0,0)"/>
<path d="" fill="#000000" transform="translate(0,0)"/>
<path d="" fill="#000000" transform="translate(0,0)"/>
<path d="" fill="#000000" transform="translate(0,0)"/>
<path d="" fill="#000000" transform="translate(0,0)"/>
<path d="" fill="#000000" transform="translate(0,0)"/>
<path d="" fill="#000000" transform="translate(0,0)"/>
<path d="" fill="#000000" transform="translate(0,0)"/>
<path d="" fill="#000000" transform="translate(0,0)"/>
<path d="" fill="#000000" transform="translate(0,0)"/>
<path d="" fill="#000000" transform="translate(0,0)"/>
<path d="" fill="#000000" transform="translate(0,0)"/>
<path d="" fill="#000000" transform="translate(0,0)"/>
<path d="" fill="#000000" transform="translate(0,0)"/>
<path d="" fill="#000000" transform="translate(0,0)"/>
<path d="" fill="#000000" transform="translate(0,0)"/>
<path d="" fill="#000000" transform="translate(0,0)"/>
<path d="" fill="#000000" transform="translate(0,0)"/>
<path d="" fill="#000000" transform="translate(0,0)"/>
<path d="" fill="#000000" transform="translate(0,0)"/>
<path d="" fill="#000000" transform="translate(0,0)"/>
<path d="" fill="#000000" transform="translate(0,0)"/>
<path d="" fill="#FFFFFF" transform="translate(0,0)"/>
<path d="" fill="#000000" transform="translate(0,0)"/>
<path d="" fill="#000000" transform="translate(0,0)"/>
<path d="" fill="#000000" transform="translate(0,0)"/>
<path d="" fill="#FFFFFF" transform="translate(0,0)"/>
<path d="" fill="#000000" transform="translate(0,0)"/>
<path d="" fill="#000000" transform="translate(0,0)"/>
<path d="" fill="#000000" transform="translate(0,0)"/>
<path d="" fill="#000000" transform="translate(0,0)"/>
<path d="" fill="#000000" transform="translate(0,0)"/>
<path d="" fill="#000000" transform="translate(0,0)"/>
<path d="" fill="#000000" transform="translate(0,0)"/>
<path d="" fill="#000000" transform="translate(0,0)"/>
<path d="" fill="#000000" transform="translate(0,0)"/>
<path d="" fill="#000000" transform="translate(0,0)"/>
<path d="" fill="#000000" transform="translate(0,0)"/>
<path d="" fill="#000000" transform="translate(0,0)"/>
<path d="" fill="#000000" transform="translate(0,0)"/>
<path d="" fill="#000000" transform="translate(0,0)"/>
<path d="" fill="#000000" transform="translate(0,0)"/>
<path d="" fill="#000000" transform="translate(0,0)"/>
<path d="" fill="#000000" transform="translate(0,0)"/>
<path d="" fill="#000000" transform="translate(0,0)"/>
<path d="" fill="#000000" transform="translate(0,0)"/>
<path d="" fill="#000000" transform="translate(0,0)"/>
<path d="" fill="#000000" transform="translate(0,0)"/>
<path d="" fill="#000000" transform="translate(0,0)"/>
<path d="" fill="#000000" transform="translate(0,0)"/>
<path d="" fill="#000000" transform="translate(0,0)"/>
<path d="" fill="#FFFFFF" transform="translate(0,0)"/>
<path d="" fill="#000000" transform="translate(0,0)"/>
<path d="" fill="#FFFFFF" transform="translate(0,0)"/>
<path d="" fill="#000000" transform="translate(0,0)"/>
<path d="" fill="#FFFFFF" transform="translate(0,0)"/>
<path d="" fill="#000000" transform="translate(0,0)"/>
<path d="" fill="#FFFFFF" transform="translate(0,0)"/>
<path d="" fill="#000000" transform="translate(0,0)"/>
<path d="" fill="#FFFFFF" transform="translate(0,0)"/>
<path d="" fill="#FFFFFF" transform="translate(0,0)"/>
<path d="" fill="#FFFFFF" transform="translate(0,0)"/>
<path d="" fill="#000000" transform="translate(0,0)"/>
<path d="" fill="#000000" transform="translate(0,0)"/>
<path d="" fill="#FFFFFF" transform="translate(0,0)"/>
<path d="" fill="#000000" transform="translate(0,0)"/>
<path d="" fill="#000000" transform="translate(0,0)"/>
<path d="" fill="#000000" transform="translate(0,0)"/>
<path d="" fill="#FFFFFF" transform="translate(0,0)"/>
<path d="" fill="#000000" transform="translate(0,0)"/>
<path d="" fill="#FFFFFF" transform="translate(0,0)"/>
<path d="" fill="#000000" transform="translate(0,0)"/>
<path d="" fill="#000000" transform="translate(0,0)"/>
<path d="" fill="#FFFFFF" transform="translate(0,0)"/>
<path d="" fill="#FFFFFF" transform="translate(0,0)"/>
<path d="" fill="#FFFFFF" transform="translate(0,0)"/>
<path d="" fill="#FFFFFF" transform="translate(0,0)"/>
<path d="" fill="#000000" transform="translate(0,0)"/>
<path d="" fill="#FFFFFF" transform="translate(0,0)"/>
<path d="" fill="#FFFFFF" transform="translate(0,0)"/>
<path d="" fill="#FFFFFF" transform="translate(0,0)"/>
<path d="" fill="#FFFFFF" transform="translate(0,0)"/>
<path d="" fill="#FFFFFF" transform="translate(0,0)"/>
<path d="" fill="#FFFFFF" transform="translate(0,0)"/>
<path d="" fill="#FFFFFF" transform="translate(0,0)"/>
<path d="" fill="#FFFFFF" transform="translate(0,0)"/>
<path d="" fill="#FFFFFF" transform="translate(0,0)"/>
</svg>
