<?xml version="1.0" encoding="UTF-8"?>
<svg version="1.1" xmlns="http://www.w3.org/2000/svg" width="509" height="490">
<path d="M0 0 C6.71937427 0.84660551 9.21125432 4.20033125 13.45800781 9.23754883 C21.7904899 19.13305185 21.7904899 19.13305185 33.5859375 23.296875 C36.91206917 23.41665058 40.10565834 23.32466737 43.42138672 23.04516602 C51.04504296 22.43063228 51.04504296 22.43063228 54.43066406 24.44921875 C56.44589978 26.20333815 58.23936477 27.9933287 60 30 C63.38404971 33.62659362 63.38404971 33.62659362 68 35 C68.45375 34.195625 68.9075 33.39125 69.375 32.5625 C71 30 71 30 73 29 C88.24153783 27.07906238 103.40931516 34.72763938 115.125 43.8125 C115.80820312 44.37582031 116.49140625 44.93914062 117.1953125 45.51953125 C119.14089612 47.16532988 119.14089612 47.16532988 122 49 C122 49.66 122 50.32 122 51 C122.58265625 51.24105469 123.1653125 51.48210937 123.765625 51.73046875 C136.9590854 59.22675307 145.52654238 80.92568015 149.41015625 94.88671875 C156.54994531 122.26527993 161.04637947 161.53435948 146.1875 187.12109375 C144.95958439 189.02485807 143.69748165 190.90734741 142.390625 192.7578125 C140.736466 194.98517544 140.736466 194.98517544 141 198 C140.34 198 139.68 198 139 198 C136.29857673 209.33987281 135.80947927 219.41035241 137 231 C137.66 231.33 138.32 231.66 139 232 C139.640625 233.79296875 139.640625 233.79296875 140.25 236.1875 C141.855843 241.97019889 144.27070416 247.27810822 146.79296875 252.703125 C148.02204799 256.0602217 148.24134948 258.4602077 148 262 C147.41508789 262.02505615 146.83017578 262.0501123 146.22753906 262.07592773 C143.56815529 262.19222962 140.90909597 262.31480067 138.25 262.4375 C137.32960938 262.47681641 136.40921875 262.51613281 135.4609375 262.55664062 C134.57148438 262.59853516 133.68203125 262.64042969 132.765625 262.68359375 C131.94868164 262.72025146 131.13173828 262.75690918 130.29003906 262.79467773 C126.13122074 263.1675526 123.73645954 263.74231007 121 267 C120.67 267.66 120.34 268.32 120 269 C119.67 269.33 119.34 269.66 119 270 C118.67 274.29 118.34 278.58 118 283 C109.09 283 100.18 283 91 283 C90.67 283.66 90.34 284.32 90 285 C89.34 285.33 88.68 285.66 88 286 C88.31978218 293.3549901 91.80233277 299.80233277 97 305 C97.33 305.99 97.66 306.98 98 308 C98.66 308.33 99.32 308.66 100 309 C98.42306589 312.89702108 95.88838498 315.2489773 92.875 318.125 C91.21276567 319.71189226 89.57775654 321.32909178 88 323 C88 323.66 88 324.32 88 325 C87.319375 325.391875 86.63875 325.78375 85.9375 326.1875 C83.31824754 327.8036345 81.80924892 329.16214743 79.75 331.375 C76.04189505 335.20508209 71.91911909 337.93130069 67 340 C66.01 340 65.02 340 64 340 C64 339.34 64 338.68 64 338 C63.278125 337.896875 62.55625 337.79375 61.8125 337.6875 C56.83398017 336.47052849 53.34234206 333.83750385 50 330 C50 329.34 50 328.68 50 328 C49.34 328 48.68 328 48 328 C48 327.34 48 326.68 48 326 C47.34 326 46.68 326 46 326 C44.65795898 324.63232422 44.65795898 324.63232422 43.05859375 322.6796875 C37.93718083 316.65402718 32.23839942 311.20619685 26.58764648 305.68359375 C25.17005197 304.29600999 23.75874095 302.90201582 22.34765625 301.5078125 C21.51242432 300.68941895 20.67719238 299.87102539 19.81665039 299.02783203 C18 297 18 297 18 295 C17.1646875 294.6596875 17.1646875 294.6596875 16.3125 294.3125 C13.38614565 292.65159618 11.33203184 290.38447797 9 288 C7.65761855 286.65488284 6.31374177 285.31125708 4.96875 283.96875 C-3.96875 275.03125 -3.96875 275.03125 -6.08569336 272.91186523 C-7.66712026 271.33245521 -9.25636092 269.76087311 -10.84765625 268.19140625 C-15.5641397 263.38932419 -18.86331619 258.45137487 -21.625 252.3125 C-25.04720535 245.18964215 -30.05222511 240.09702756 -35.5234375 234.52099609 C-37.68152422 232.29796695 -39.74732162 229.99668062 -41.8125 227.6875 C-42.45832031 226.96949219 -43.10414062 226.25148438 -43.76953125 225.51171875 C-44.50558594 224.68285156 -45.24164063 223.85398437 -46 223 C-46.90528442 222.17894775 -46.90528442 222.17894775 -47.82885742 221.34130859 C-50.72643034 218.52163716 -52.81890261 216.44944344 -53.33276367 212.33666992 C-53.19206344 209.29862526 -52.9431838 206.28041292 -52.6875 203.25 C-52.43210393 195.38496196 -53.15341138 190.19774792 -58.45703125 184.1640625 C-61.9882564 180.61529129 -65.73161081 177.39778616 -69.5625 174.1796875 C-74.57803209 169.86971027 -74.57803209 169.86971027 -75.1875 166.1328125 C-75 163 -75 163 -74 160 C-70.75 158.625 -70.75 158.625 -67 158 C-61.11027886 160.81752494 -56.82534161 165.83914462 -52.27832031 170.40600586 C-50.74925255 171.93824901 -49.20729023 173.45664428 -47.6640625 174.97460938 C-46.68669023 175.94970985 -45.71009994 176.92559489 -44.734375 177.90234375 C-43.84975586 178.78398193 -42.96513672 179.66562012 -42.05371094 180.57397461 C-38.83570122 184.37537292 -38.88636314 187.22742927 -39 192.0703125 C-39.48516579 205.30127999 -39.48516579 205.30127999 -33.4375 216.4375 C-30.69267417 219.17589391 -30.69267417 219.17589391 -27.20703125 219.92578125 C-23.76919635 218.48371599 -23.06985207 215.43114847 -21.6875 212.1875 C-17.41380968 203.13880007 -17.41380968 203.13880007 -13.2421875 201.38671875 C-8.91511019 200.64041099 -4.55010552 200.92656751 -0.17578125 201.0390625 C18.88088616 201.19234537 36.85015224 193.35435603 50.62109375 180.40234375 C64.72565655 166.15881974 72.26955521 148.32062569 72.4375 128.3125 C72.09426516 105.89465458 62.20790155 88.6564288 48 72 C48.66 71.67 49.32 71.34 50 71 C50.69563146 69.00988912 51.35532002 67.0071951 52 65 C53.13946088 62.34216987 54.38065321 59.73509327 55.625 57.125 C55.94984375 56.43664062 56.2746875 55.74828125 56.609375 55.0390625 C57.40323472 53.35794781 58.20119558 51.67877079 59 50 C55.21667738 44.49924804 51.12055713 38.80182634 44.23730469 37.46240234 C41.10223068 37.25451021 38.0165672 37.20905115 34.875 37.25 C21.80221931 37.36383128 21.80221931 37.36383128 17.4375 33.875 C15.9113537 32.29403937 14.43959462 30.66015854 13 29 C11.72942563 27.72496507 10.44850284 26.46019953 9.16015625 25.203125 C5.88170519 21.99901785 2.64974609 18.75507456 -0.5546875 15.47705078 C-1.69582937 14.31085005 -2.84626066 13.15373934 -4 12 C-5 10 -5 10 -4.25 7.125 C-3.11466579 4.28666446 -1.95916576 2.31537772 0 0 Z M81 178 C80.17154553 180.83898118 80.17154553 180.83898118 81 184 C82.67325871 186.54063199 84.74655641 188.58777654 86.9140625 190.7109375 C87.52132172 191.32393707 88.12858093 191.93693665 88.75424194 192.56851196 C90.03989244 193.85823846 91.3331237 195.14044648 92.63330078 196.41552734 C94.61849115 198.36859646 96.56965401 200.35158891 98.51953125 202.33984375 C99.77412242 203.59046996 101.03057362 204.83923358 102.2890625 206.0859375 C102.87056061 206.67958099 103.45205872 207.27322449 104.05117798 207.88485718 C106.89828832 210.63583359 108.27976677 211.89613355 112.29443359 212.47509766 C115.07964778 212.21980849 115.07964778 212.21980849 117 210.3125 C118.2547087 208.05181441 118.2547087 208.05181441 117.44140625 205.7421875 C115.51869797 202.08435223 112.91805405 199.63269676 109.9375 196.8125 C104.10530726 191.21061453 104.10530726 191.21061453 103 189 C102.34 189 101.68 189 101 189 C101 188.01 101 187.02 101 186 C101.74161377 186.02618408 102.48322754 186.05236816 103.24731445 186.0793457 C106.60216145 186.18317431 109.95667105 186.24828239 113.3125 186.3125 C115.06336914 186.3753418 115.06336914 186.3753418 116.84960938 186.43945312 C117.96787109 186.45556641 119.08613281 186.47167969 120.23828125 186.48828125 C121.26993408 186.51446533 122.30158691 186.54064941 123.36450195 186.56762695 C126.24558214 186.25182605 126.24558214 186.25182605 127.86010742 183.46948242 C128.23627197 182.65455322 128.61243652 181.83962402 129 181 C127.13433512 177.37206002 127.13433512 177.37206002 124 175 C121.12995274 174.87646855 118.28514571 174.81157225 115.4140625 174.796875 C114.13406876 174.78832489 114.13406876 174.78832489 112.82821655 174.77960205 C111.020907 174.77014802 109.21358018 174.76361647 107.40625 174.75976562 C104.6429227 174.75006293 101.88034006 174.71904509 99.1171875 174.6875 C97.36198359 174.68096964 95.60677435 174.6757193 93.8515625 174.671875 C92.61232529 174.6533548 92.61232529 174.6533548 91.34805298 174.63446045 C85.46735605 174.55187492 85.46735605 174.55187492 81 178 Z M-28 221 C-27.01 221.99 -26.02 222.98 -25 224 C-25.33 223.01 -25.66 222.02 -26 221 C-26.66 221 -27.32 221 -28 221 Z " fill="#06B2CF" transform="translate(144,65)"/>
<path d="M0 0 C0.76075836 -0.00570007 1.52151672 -0.01140015 2.30532837 -0.01727295 C3.91415012 -0.02671248 5.52299112 -0.03325278 7.13183594 -0.03710938 C9.58563165 -0.04681201 12.03858839 -0.0778428 14.4921875 -0.109375 C16.05728671 -0.11590585 17.62239189 -0.121156 19.1875 -0.125 C19.91786469 -0.1373468 20.64822937 -0.1496936 21.40072632 -0.16241455 C25.82823059 -0.14317604 28.73847457 0.40140001 32.2265625 3.203125 C32.2265625 3.863125 32.2265625 4.523125 32.2265625 5.203125 C33.2165625 5.698125 33.2165625 5.698125 34.2265625 6.203125 C33.8965625 10.493125 33.5665625 14.783125 33.2265625 19.203125 C34.8765625 19.863125 36.5265625 20.523125 38.2265625 21.203125 C39.433125 22.069375 39.433125 22.069375 40.6640625 22.953125 C43.21165058 24.52146465 43.21165058 24.52146465 46.1640625 23.578125 C49.27134533 22.24794971 49.27134533 22.24794971 52.2265625 20.453125 C55.2265625 19.203125 55.2265625 19.203125 58.1652832 19.75683594 C62.0442904 21.58945725 63.08793103 23.39269313 65.20703125 27.09375 C65.54656326 27.67598328 65.88609528 28.25821655 66.23591614 28.85809326 C67.31245445 30.71381618 68.36312535 32.58280903 69.4140625 34.453125 C70.13054623 35.69494374 70.848631 36.9358402 71.56835938 38.17578125 C80.12656564 53.00316267 80.12656564 53.00316267 80.4765625 57.203125 C78.3070949 62.40984725 73.12519828 64.75380711 68.2265625 67.203125 C67.75701989 70.24893769 67.75701989 70.24893769 67.6015625 73.765625 C67.52679688 74.96316406 67.45203125 76.16070312 67.375 77.39453125 C67.30152344 78.78478516 67.30152344 78.78478516 67.2265625 80.203125 C67.85304688 80.61304688 68.47953125 81.02296875 69.125 81.4453125 C69.94226563 81.98414063 70.75953125 82.52296875 71.6015625 83.078125 C72.41367187 83.61179687 73.22578125 84.14546875 74.0625 84.6953125 C76.2265625 86.203125 76.2265625 86.203125 78.2265625 88.203125 C78.75149465 92.9921799 77.73795002 95.81023636 75.375 99.94140625 C74.77042969 101.00939453 74.16585937 102.07738281 73.54296875 103.17773438 C72.90230469 104.27923828 72.26164063 105.38074219 71.6015625 106.515625 C70.98410156 107.60552734 70.36664063 108.69542969 69.73046875 109.81835938 C66.13249592 116.1167055 62.35296196 122.23734998 58.2265625 128.203125 C53.54354205 127.34978273 49.51121554 126.58945458 45.4765625 123.953125 C42.44246888 121.86392037 42.44246888 121.86392037 39.6640625 122.765625 C38.8596875 123.24 38.0553125 123.714375 37.2265625 124.203125 C36.1540625 124.491875 35.0815625 124.780625 33.9765625 125.078125 C30.95834877 126.90832708 30.95834877 126.90832708 30.80078125 129.890625 C30.70908718 132.02840669 30.62321754 134.16644559 30.54296875 136.3046875 C30.2265625 139.203125 30.2265625 139.203125 28.1015625 142.453125 C24.56474642 144.60596957 22.2958725 144.33717286 18.2265625 144.203125 C18.23655525 145.96505943 18.23655525 145.96505943 18.24674988 147.7625885 C18.30761056 158.84163571 18.35255902 169.92064892 18.38199902 180.99982548 C18.3976433 186.69551126 18.41885924 192.39106191 18.45288086 198.08666992 C18.48551805 203.58502465 18.50342482 209.08324952 18.51119423 214.58169365 C18.51672988 216.6776172 18.52753966 218.77353378 18.54375267 220.86940193 C18.56558463 223.8090046 18.56852698 226.74807321 18.56713867 229.68774414 C18.5779245 230.55089737 18.58871033 231.4140506 18.599823 232.30335999 C18.56840676 238.46600513 17.77495005 243.65473745 13.2265625 248.203125 C9.88075338 249.38704505 6.63279552 249.33142614 3.1091156 249.33683777 C1.2268074 249.34323524 1.2268074 249.34323524 -0.69352722 249.34976196 C-2.08157352 249.34941247 -3.46961979 249.34895095 -4.85766602 249.34838867 C-6.32135097 249.35138122 -7.78503514 249.35478397 -9.24871826 249.35856628 C-13.22170084 249.3673985 -17.19466188 249.36974401 -21.16765332 249.37038207 C-24.48300146 249.37133167 -27.79834459 249.37501037 -31.11369079 249.37855417 C-38.9324859 249.38669495 -46.7512695 249.38913866 -54.57006836 249.38842773 C-62.64192905 249.38782629 -70.71372306 249.39839215 -78.78556687 249.4141714 C-85.7130288 249.42723212 -92.64046888 249.43261229 -99.56794304 249.43197232 C-103.70675784 249.431717 -107.84551331 249.43458726 -111.98431587 249.44515038 C-115.87407233 249.45480726 -119.76371242 249.45492721 -123.6534729 249.44763374 C-125.08255622 249.44658505 -126.5116467 249.44896759 -127.9407177 249.4549942 C-129.88812201 249.46267628 -131.83556571 249.45688715 -133.78297424 249.45036316 C-135.41919912 249.45118031 -135.41919912 249.45118031 -137.08847904 249.45201397 C-139.7734375 249.203125 -139.7734375 249.203125 -142.7734375 247.203125 C-143.30078125 244.92578125 -143.30078125 244.92578125 -142.7734375 242.203125 C-141.00544209 240.14968717 -139.33801038 238.42934191 -137.3359375 236.640625 C-133.57167161 233.31474797 -133.57167161 233.31474797 -130.75 229.2109375 C-130.78550554 226.16929603 -132.07126059 224.24785575 -133.5859375 221.640625 C-134.39998047 220.21556641 -134.39998047 220.21556641 -135.23046875 218.76171875 C-136.36515867 216.88014432 -137.55463057 215.03133539 -138.7734375 213.203125 C-138.7734375 212.213125 -138.7734375 211.223125 -138.7734375 210.203125 C-137.01966797 210.14705078 -137.01966797 210.14705078 -135.23046875 210.08984375 C-133.68226075 210.0241622 -132.13408508 209.95771561 -130.5859375 209.890625 C-129.81701172 209.86806641 -129.04808594 209.84550781 -128.25585938 209.82226562 C-123.65289604 209.60495834 -120.52871535 209.13337969 -116.7734375 206.203125 C-113.77134766 202.16583177 -113.63664234 198.85154792 -113.69921875 193.98046875 C-113.70993408 192.89886475 -113.72064941 191.81726074 -113.73168945 190.70288086 C-113.74546631 189.87796143 -113.75924316 189.05304199 -113.7734375 188.203125 C-113.07259033 188.1937793 -112.37174316 188.18443359 -111.6496582 188.17480469 C-108.46104725 188.12097956 -105.27388417 188.03735564 -102.0859375 187.953125 C-100.98314453 187.93894531 -99.88035156 187.92476562 -98.74414062 187.91015625 C-92.34446312 187.76683996 -92.34446312 187.76683996 -86.56640625 185.28125 C-83.42218728 181.63697006 -83.37593314 178.85413079 -83.4296875 174.1640625 C-84.16140071 167.86135101 -87.04177787 162.12703648 -89.58300781 156.36865234 C-94.82091033 144.45444347 -97.88641506 133.05065167 -93.7734375 120.203125 C-92.08286562 116.00771496 -89.85576013 112.3182391 -87.3359375 108.578125 C-83.69610614 102.9488206 -81.89669977 96.51224717 -79.7734375 90.203125 C-74.8234375 89.873125 -69.8734375 89.543125 -64.7734375 89.203125 C-64.1134375 87.223125 -63.4534375 85.243125 -62.7734375 83.203125 C-60.42578125 81.76171875 -60.42578125 81.76171875 -57.7109375 80.640625 C-54.93989747 79.299309 -54.93989747 79.299309 -52.7734375 77.203125 C-51.59802125 72.83057654 -51.54620453 68.70768442 -51.7734375 64.203125 C-52.48371094 63.94660156 -53.19398438 63.69007813 -53.92578125 63.42578125 C-54.84488281 63.04292969 -55.76398438 62.66007812 -56.7109375 62.265625 C-57.62746094 61.90597656 -58.54398437 61.54632813 -59.48828125 61.17578125 C-61.93766003 59.06136025 -62.36089924 58.38889627 -63.0390625 55.3359375 C-63.43619108 48.3204729 -59.14545302 42.74855691 -55.5859375 37.015625 C-54.89046974 35.85607966 -54.19709216 34.695278 -53.50585938 33.53320312 C-44.52693486 18.57987368 -44.52693486 18.57987368 -41.7734375 17.203125 C-37.43738401 16.58368879 -35.21932468 17.37143261 -31.7109375 19.765625 C-28.73124978 21.80747939 -28.73124978 21.80747939 -25.2109375 22.265625 C-24.4065625 21.915 -23.6021875 21.564375 -22.7734375 21.203125 C-21.5359375 20.77 -20.2984375 20.336875 -19.0234375 19.890625 C-17.12357875 18.92134914 -17.12357875 18.92134914 -15.7734375 17.203125 C-15.18764609 14.10060011 -15.08545092 11.23306846 -15.13671875 8.078125 C-14.67998623 4.46355368 -13.60719235 3.4088585 -10.7734375 1.203125 C-7.14172335 -0.00744638 -3.78296115 0.02189112 0 0 Z M-0.7734375 14.203125 C-0.8765625 15.95625 -0.9796875 17.709375 -1.0859375 19.515625 C-1.38894574 24.66676502 -1.38894574 24.66676502 -3.01953125 26.94140625 C-5.10920542 28.44466852 -7.09507183 29.22593456 -9.5234375 30.078125 C-12.92023501 31.3587226 -15.69893969 32.6888926 -18.5859375 34.890625 C-23.27245775 38.29064949 -23.27245775 38.29064949 -26.7734375 38.203125 C-28.59637905 37.21569833 -30.26150547 36.14943331 -31.9296875 34.91796875 C-33.8497527 33.9831563 -33.8497527 33.9831563 -36.29296875 34.7109375 C-39.57805489 36.68716255 -40.39299313 38.67265152 -41.9609375 42.140625 C-43.44141405 45.35548569 -44.80726567 48.25386726 -46.7734375 51.203125 C-46.13390137 51.47890381 -45.49436523 51.75468262 -44.83544922 52.03881836 C-42.00774977 53.52370474 -39.97485811 54.8752398 -37.7734375 57.203125 C-36.50338154 61.74775585 -36.69458147 66.0794223 -36.8984375 70.765625 C-36.89650391 72.59383789 -36.89650391 72.59383789 -36.89453125 74.45898438 C-37.09962697 84.29818188 -37.09962697 84.29818188 -40.20703125 87.38671875 C-41.05394531 87.98613281 -41.90085937 88.58554688 -42.7734375 89.203125 C-44.78208109 91.5758224 -44.78208109 91.5758224 -45.7734375 94.203125 C-45.24008398 96.78813043 -45.24008398 96.78813043 -43.7734375 99.203125 C-43.2784375 100.13125 -42.7834375 101.059375 -42.2734375 102.015625 C-41.7784375 102.7375 -41.2834375 103.459375 -40.7734375 104.203125 C-40.1134375 104.203125 -39.4534375 104.203125 -38.7734375 104.203125 C-38.1134375 105.193125 -37.4534375 106.183125 -36.7734375 107.203125 C-35.7525 106.708125 -35.7525 106.708125 -34.7109375 106.203125 C-30.93015763 104.916051 -28.7691495 104.61359372 -24.7734375 105.203125 C-22.15458411 106.7492474 -19.774393 108.48427575 -17.34765625 110.31640625 C-14.20780654 112.61769215 -10.92089524 114.43593302 -7.48828125 116.2578125 C-5.7734375 117.203125 -5.7734375 117.203125 -4.7734375 118.203125 C-4.3096309 122.19415218 -4.06875573 126.19523468 -3.7734375 130.203125 C2.8265625 130.203125 9.4265625 130.203125 16.2265625 130.203125 C16.3090625 128.45 16.3915625 126.696875 16.4765625 124.890625 C16.71990146 119.71967211 16.71990146 119.71967211 18.828125 117.5703125 C21.94156245 115.79555174 25.12157085 114.18902306 28.3515625 112.640625 C33.1246178 110.43489045 33.1246178 110.43489045 37.2265625 107.203125 C43.86434523 106.40659107 45.63943513 107.90956131 52.2265625 111.203125 C55.5265625 105.593125 58.8265625 99.983125 62.2265625 94.203125 C60.2465625 93.213125 60.2465625 93.213125 58.2265625 92.203125 C57.2365625 92.698125 57.2365625 92.698125 56.2265625 93.203125 C56.0409375 92.275 56.0409375 92.275 55.8515625 91.328125 C55.35458894 89.01191668 55.35458894 89.01191668 53.2265625 87.203125 C52.71435631 83.11976009 52.80974796 79.00243546 52.7890625 74.890625 C52.75619141 73.74916016 52.72332031 72.60769531 52.68945312 71.43164062 C52.63526328 63.00265585 52.63526328 63.00265585 55.578125 59.0234375 C58.08041939 57.30357145 60.55731137 55.65214704 63.2265625 54.203125 C61.87728705 49.66465302 60.03496902 45.88380254 57.6015625 41.828125 C56.96992188 40.76851562 56.33828125 39.70890625 55.6875 38.6171875 C55.20539063 37.82054687 54.72328125 37.02390625 54.2265625 36.203125 C50.65619574 37.58751461 50.65619574 37.58751461 47.2890625 39.390625 C44.08359484 40.65338499 42.52931832 40.26249951 39.2265625 39.203125 C36.92931643 37.5863839 34.77984107 35.84237523 32.61328125 34.0546875 C29.57806769 31.70003737 26.37113988 29.92823328 22.9765625 28.1484375 C21.2265625 27.203125 21.2265625 27.203125 20.2265625 26.203125 C19.7627559 22.21209782 19.52188073 18.21101532 19.2265625 14.203125 C12.6265625 14.203125 6.0265625 14.203125 -0.7734375 14.203125 Z M-47.7734375 90.203125 C-47.4434375 90.863125 -47.1134375 91.523125 -46.7734375 92.203125 C-46.4434375 91.543125 -46.1134375 90.883125 -45.7734375 90.203125 C-46.4334375 90.203125 -47.0934375 90.203125 -47.7734375 90.203125 Z M-46.7734375 92.203125 C-45.7734375 94.203125 -45.7734375 94.203125 -45.7734375 94.203125 Z M-67.70703125 143.06835938 C-69.00177227 145.20804826 -69.00177227 145.20804826 -68.5859375 147.890625 C-68.01528598 150.37203882 -68.01528598 150.37203882 -65.7734375 151.203125 C-63.52223008 151.28885894 -61.26844447 151.31024688 -59.015625 151.30078125 C-58.35257355 151.2993663 -57.68952209 151.29795135 -57.00637817 151.29649353 C-54.88701887 151.29089254 -52.76776491 151.27834 -50.6484375 151.265625 C-49.21224111 151.26061012 -47.77604306 151.25604719 -46.33984375 151.25195312 C-42.81767405 151.24092282 -39.29556605 151.22365759 -35.7734375 151.203125 C-35.7734375 150.543125 -35.7734375 149.883125 -35.7734375 149.203125 C-35.1134375 149.203125 -34.4534375 149.203125 -33.7734375 149.203125 C-32.99061102 147.41113028 -32.99061102 147.41113028 -32.7734375 145.203125 C-33.75341259 142.96628095 -33.75341259 142.96628095 -35.7734375 141.203125 C-38.91370373 140.58408583 -38.91370373 140.58408583 -42.5234375 140.671875 C-43.17795898 140.6680481 -43.83248047 140.66422119 -44.50683594 140.66027832 C-45.88868755 140.65756009 -47.27059068 140.66491549 -48.65234375 140.68164062 C-50.76679247 140.70305769 -52.87784436 140.68184261 -54.9921875 140.65625 C-56.33594499 140.6588933 -57.67970037 140.66401834 -59.0234375 140.671875 C-60.85648438 140.67864258 -60.85648438 140.67864258 -62.7265625 140.68554688 C-65.84416644 140.92050435 -65.84416644 140.92050435 -67.70703125 143.06835938 Z M-61.69058228 180.06452942 C-63.09089774 182.23318891 -63.09089774 182.23318891 -62.0234375 184.890625 C-60.9711544 187.10067647 -60.9711544 187.10067647 -59.7734375 188.203125 C-57.88750315 188.3180135 -55.99726109 188.36278328 -54.10791016 188.38012695 C-52.89640289 188.39296219 -51.68489563 188.40579742 -50.43667603 188.41902161 C-49.11694794 188.42640854 -47.79721985 188.43379547 -46.4375 188.44140625 C-45.76917522 188.44548178 -45.10085045 188.4495573 -44.41227341 188.45375633 C-40.87511247 188.4746324 -37.33799051 188.48892749 -33.80078125 188.49829102 C-30.14299884 188.50936013 -26.48582405 188.54376018 -22.82825661 188.58346272 C-20.01957044 188.60958162 -17.21103007 188.61797855 -14.40223312 188.62157249 C-12.39743149 188.6288251 -10.39272931 188.65528484 -8.38809204 188.68196106 C-7.17028046 188.67903549 -5.95246887 188.67610992 -4.69775391 188.6730957 C-3.6237735 188.67896194 -2.54979309 188.68482819 -1.44326782 188.69087219 C1.34013329 188.43818587 1.34013329 188.43818587 3.14370728 186.34172058 C4.54402274 184.17306109 4.54402274 184.17306109 3.4765625 181.515625 C2.4242794 179.30557353 2.4242794 179.30557353 1.2265625 178.203125 C-0.65937185 178.0882365 -2.54961391 178.04346672 -4.43896484 178.02612305 C-5.65047211 178.01328781 -6.86197937 178.00045258 -8.11019897 177.98722839 C-9.42992706 177.97984146 -10.74965515 177.97245453 -12.109375 177.96484375 C-12.77769978 177.96076822 -13.44602455 177.9566927 -14.13460159 177.95249367 C-17.67176253 177.9316176 -21.20888449 177.91732251 -24.74609375 177.90795898 C-28.40387616 177.89688987 -32.06105095 177.86248982 -35.71861839 177.82278728 C-38.52730456 177.79666838 -41.33584493 177.78827145 -44.14464188 177.78467751 C-46.14944351 177.7774249 -48.15414569 177.75096516 -50.15878296 177.72428894 C-51.37659454 177.72721451 -52.59440613 177.73014008 -53.84912109 177.7331543 C-54.9231015 177.72728806 -55.99708191 177.72142181 -57.10360718 177.71537781 C-59.88700829 177.96806413 -59.88700829 177.96806413 -61.69058228 180.06452942 Z M-95.7734375 217.203125 C-95.7734375 218.523125 -95.7734375 219.843125 -95.7734375 221.203125 C-95.1134375 221.203125 -94.4534375 221.203125 -93.7734375 221.203125 C-94.1034375 222.193125 -94.4334375 223.183125 -94.7734375 224.203125 C-92.65826222 226.31830028 -87.91226475 225.37118815 -84.98681641 225.38012695 C-83.60394188 225.38998375 -83.60394188 225.38998375 -82.19313049 225.40003967 C-79.12875295 225.41982268 -76.06442448 225.43144559 -73 225.44140625 C-71.95656811 225.44548178 -70.91313622 225.4495573 -69.83808517 225.45375633 C-64.31686346 225.47463719 -58.79566676 225.48893087 -53.27441406 225.49829102 C-47.55856927 225.50936725 -41.84311254 225.54377553 -36.12740517 225.58346272 C-31.7437363 225.60955053 -27.36016103 225.61797581 -22.97642136 225.62157249 C-20.86881257 225.62645779 -18.76120848 225.63812652 -16.65367508 225.65661049 C-13.70841567 225.68083832 -10.76417523 225.68006706 -7.81884766 225.6730957 C-6.94288437 225.68590576 -6.06692108 225.69871582 -5.16441345 225.71191406 C-0.50210139 225.71801512 -0.50210139 225.71801512 3.33877563 223.34172058 C4.50859295 221.14535158 4.50859295 221.14535158 3.4765625 218.515625 C2.4242794 216.30557353 2.4242794 216.30557353 1.2265625 215.203125 C-1.71516183 215.09719783 -4.63353555 215.05634876 -7.57592773 215.05786133 C-8.49945038 215.05450272 -9.42297302 215.0511441 -10.3744812 215.04768372 C-13.44367803 215.03814301 -16.51282049 215.03622906 -19.58203125 215.03515625 C-21.70573449 215.03194588 -23.8294375 215.02858198 -25.95314026 215.02507019 C-30.41122958 215.01907113 -34.8692995 215.01723109 -39.32739258 215.01782227 C-45.05217988 215.01792394 -50.7768433 215.0042695 -56.50160122 214.98705006 C-60.88951697 214.9759554 -65.27740254 214.97390227 -69.66533089 214.97443199 C-71.77653493 214.97324812 -73.88773966 214.96880377 -75.99892998 214.96109962 C-78.94656026 214.95135056 -81.89391849 214.95415755 -84.84155273 214.96020508 C-85.7211113 214.95458557 -86.60066986 214.94896606 -87.50688171 214.94317627 C-92.11935582 214.75121699 -92.11935582 214.75121699 -95.7734375 217.203125 Z " fill="#07ABC7" transform="translate(388.7734375,148.796875)"/>
<path d="M0 0 C2.27764008 1.87853004 4.20915284 4.02505731 6.18359375 6.21484375 C7.37049782 7.4718817 8.55869209 8.72770243 9.74804688 9.98242188 C11.59178663 11.94922412 13.42456188 13.92322642 15.23510742 15.9206543 C22.75269488 24.16976045 28.26172836 29.41766202 39.62036133 30.63061523 C51.05014147 31.87985726 60.83245867 38.88155423 68.1015625 47.48828125 C77.31248785 60.08961104 80.85393581 73.58330385 78.53515625 89.11328125 C75.49546877 102.98073124 67.95673257 113.87499207 56.1953125 121.91796875 C42.86389972 129.56559223 29.94752851 131.28156499 15 128 C1.25287627 123.85748884 -9.65332543 114.79543432 -16.53515625 102.1875 C-18.99290082 96.79909207 -20.11120426 92.26264099 -20.41015625 86.35546875 C-21.6276364 77.25432533 -27.03218696 72.79365906 -33.5625 67.0625 C-35.19146106 65.60032676 -36.81008729 64.12964388 -38.41307068 62.63902283 C-39.85842824 61.29955512 -41.33193331 59.99064715 -42.80688477 58.68383789 C-46.07086473 54.68952287 -46 51.00075405 -46 46 C-37.79050302 43.99809398 -37.79050302 43.99809398 -33.8359375 46.2109375 C-31.75521493 48.04296813 -29.87403328 49.95696573 -28 52 C-26.56884511 53.48530669 -25.13144465 54.96462386 -23.6875 56.4375 C-23.05199219 57.11683594 -22.41648437 57.79617187 -21.76171875 58.49609375 C-20.00577283 60.32463119 -20.00577283 60.32463119 -17 60 C-16.814375 59.195625 -16.62875 58.39125 -16.4375 57.5625 C-11.94891703 46.43862046 -1.77097394 37.84917291 9 33 C9.66 33 10.32 33 11 33 C5.68811094 26.65164479 -0.08306202 20.86374609 -6.01977539 15.10522461 C-6.66164795 14.47495361 -7.30352051 13.84468262 -7.96484375 13.1953125 C-8.5487085 12.62828613 -9.13257324 12.06125977 -9.73413086 11.47705078 C-11 10 -11 10 -11 8 C-11.66 7.67 -12.32 7.34 -13 7 C-10.59849906 0.51594747 -10.59849906 0.51594747 -8.1875 -1.5625 C-4.89459027 -2.22108195 -3.07329047 -1.33889351 0 0 Z " fill="#06B1CE" transform="translate(115,114)"/>
<path d="M0 0 C6.42982885 3.71594005 10.78611297 8.66805301 13.09375 15.76953125 C14.60191008 22.7447716 14.14293558 29.69051624 10.5625 35.9375 C5.73323838 42.41151014 1.50894606 46.9778028 -6.6875 48.25 C-14.86876083 49.32864668 -20.630147 48.10397179 -27.546875 43.48828125 C-32.45268995 39.46429667 -36.16174931 34.18867837 -37.4375 27.9375 C-38.05949804 20.82508758 -37.83885954 13.06654425 -33.375 7.25 C-23.20616491 -0.75525316 -12.87624733 -5.9684733 0 0 Z " fill="#07ADCA" transform="translate(408.4375,198.0625)"/>
<path d="M0 0 C4 1 4 1 4 1 Z " fill="#000000" transform="translate(386,365)"/>
<path d="M0 0 C4 1 4 1 4 1 Z " fill="#000000" transform="translate(295,365)"/>
<path d="M0 0 C0.99 0.33 1.98 0.66 3 1 C2.01 1.33 1.02 1.66 0 2 C0 1.34 0 0.68 0 0 Z " fill="#000000" transform="translate(408,294)"/>
<path d="M0 0 C4 1 4 1 4 1 Z " fill="#000000" transform="translate(442,277)"/>
<path d="M0 0 C0.99 0.495 0.99 0.495 2 1 C1.34 1.66 0.68 2.32 0 3 C0 2.01 0 1.02 0 0 Z " fill="#000000" transform="translate(420,276)"/>
<path d="M0 0 C0.33 0.66 0.66 1.32 1 2 C0.34 1.67 -0.32 1.34 -1 1 C-0.67 0.67 -0.34 0.34 0 0 Z " fill="#000000" transform="translate(266,330)"/>
<path d="M0 0 C3 1 3 1 3 1 Z " fill="#000000" transform="translate(387,328)"/>
<path d="M0 0 C3 1 3 1 3 1 Z " fill="#000000" transform="translate(329,328)"/>
<path d="M0 0 C0.66 0 1.32 0 2 0 C1.67 0.66 1.34 1.32 1 2 C0.67 1.34 0.34 0.68 0 0 Z " fill="#000000" transform="translate(447,242)"/>
<path d="M0 0 C0.66 0 1.32 0 2 0 C1.67 0.66 1.34 1.32 1 2 C0.67 1.34 0.34 0.68 0 0 Z " fill="#000000" transform="translate(456,228)"/>
<path d="" fill="#000000" transform="translate(0,0)"/>
<path d="M0 0 C2 1 2 1 2 1 Z " fill="#000000" transform="translate(295,372)"/>
<path d="" fill="#000000" transform="translate(0,0)"/>
<path d="" fill="#000000" transform="translate(0,0)"/>
<path d="" fill="#000000" transform="translate(0,0)"/>
<path d="M0 0 C2 1 2 1 2 1 Z " fill="#000000" transform="translate(351,291)"/>
<path d="M0 0 C2 1 2 1 2 1 Z " fill="#000000" transform="translate(323,291)"/>
<path d="M0 0 C2 1 2 1 2 1 Z " fill="#000000" transform="translate(253,275)"/>
<path d="M0 0 C2 1 2 1 2 1 Z " fill="#000000" transform="translate(429,271)"/>
<path d="M0 0 C2 1 2 1 2 1 Z " fill="#000000" transform="translate(226,243)"/>
<path d="" fill="#000000" transform="translate(0,0)"/>
<path d="M0 0 C2 1 2 1 2 1 Z " fill="#000000" transform="translate(411,199)"/>
<path d="" fill="#000000" transform="translate(0,0)"/>
<path d="M0 0 C2 1 2 1 2 1 Z " fill="#000000" transform="translate(361,170)"/>
<path d="M0 0 C2 1 2 1 2 1 Z " fill="#000000" transform="translate(405,164)"/>
<path d="M0 0 C2 1 2 1 2 1 Z " fill="#000000" transform="translate(389,164)"/>
<path d="" fill="#000000" transform="translate(0,0)"/>
<path d="" fill="#FFFFFF" transform="translate(0,0)"/>
<path d="" fill="#FFFFFF" transform="translate(0,0)"/>
<path d="" fill="#FFFFFF" transform="translate(0,0)"/>
<path d="" fill="#FFFFFF" transform="translate(0,0)"/>
<path d="" fill="#FFFFFF" transform="translate(0,0)"/>
<path d="" fill="#FFFFFF" transform="translate(0,0)"/>
<path d="" fill="#FFFFFF" transform="translate(0,0)"/>
<path d="" fill="#FFFFFF" transform="translate(0,0)"/>
<path d="" fill="#FFFFFF" transform="translate(0,0)"/>
<path d="" fill="#FFFFFF" transform="translate(0,0)"/>
<path d="" fill="#FFFFFF" transform="translate(0,0)"/>
<path d="" fill="#FFFFFF" transform="translate(0,0)"/>
<path d="" fill="#FFFFFF" transform="translate(0,0)"/>
<path d="" fill="#000000" transform="translate(0,0)"/>
<path d="" fill="#000000" transform="translate(0,0)"/>
<path d="" fill="#000000" transform="translate(0,0)"/>
<path d="" fill="#000000" transform="translate(0,0)"/>
<path d="" fill="#000000" transform="translate(0,0)"/>
<path d="" fill="#000000" transform="translate(0,0)"/>
<path d="" fill="#000000" transform="translate(0,0)"/>
<path d="" fill="#000000" transform="translate(0,0)"/>
<path d="" fill="#000000" transform="translate(0,0)"/>
<path d="" fill="#FFFFFF" transform="translate(0,0)"/>
<path d="" fill="#FFFFFF" transform="translate(0,0)"/>
<path d="" fill="#FFFFFF" transform="translate(0,0)"/>
<path d="" fill="#FFFFFF" transform="translate(0,0)"/>
<path d="" fill="#FFFFFF" transform="translate(0,0)"/>
<path d="" fill="#FFFFFF" transform="translate(0,0)"/>
<path d="" fill="#000000" transform="translate(0,0)"/>
<path d="" fill="#000000" transform="translate(0,0)"/>
<path d="" fill="#000000" transform="translate(0,0)"/>
<path d="" fill="#000000" transform="translate(0,0)"/>
<path d="" fill="#000000" transform="translate(0,0)"/>
<path d="" fill="#FFFFFF" transform="translate(0,0)"/>
<path d="" fill="#FFFFFF" transform="translate(0,0)"/>
<path d="" fill="#000000" transform="translate(0,0)"/>
<path d="" fill="#000000" transform="translate(0,0)"/>
<path d="" fill="#FFFFFF" transform="translate(0,0)"/>
<path d="" fill="#000000" transform="translate(0,0)"/>
<path d="" fill="#000000" transform="translate(0,0)"/>
<path d="" fill="#000000" transform="translate(0,0)"/>
<path d="" fill="#000000" transform="translate(0,0)"/>
<path d="" fill="#000000" transform="translate(0,0)"/>
<path d="" fill="#000000" transform="translate(0,0)"/>
<path d="" fill="#000000" transform="translate(0,0)"/>
<path d="" fill="#000000" transform="translate(0,0)"/>
<path d="" fill="#000000" transform="translate(0,0)"/>
<path d="" fill="#000000" transform="translate(0,0)"/>
<path d="" fill="#000000" transform="translate(0,0)"/>
<path d="" fill="#000000" transform="translate(0,0)"/>
<path d="" fill="#000000" transform="translate(0,0)"/>
<path d="" fill="#000000" transform="translate(0,0)"/>
<path d="" fill="#000000" transform="translate(0,0)"/>
<path d="" fill="#000000" transform="translate(0,0)"/>
<path d="" fill="#000000" transform="translate(0,0)"/>
<path d="" fill="#000000" transform="translate(0,0)"/>
<path d="" fill="#000000" transform="translate(0,0)"/>
<path d="" fill="#000000" transform="translate(0,0)"/>
<path d="" fill="#000000" transform="translate(0,0)"/>
<path d="" fill="#000000" transform="translate(0,0)"/>
<path d="" fill="#FFFFFF" transform="translate(0,0)"/>
<path d="" fill="#000000" transform="translate(0,0)"/>
<path d="" fill="#000000" transform="translate(0,0)"/>
<path d="" fill="#000000" transform="translate(0,0)"/>
<path d="" fill="#000000" transform="translate(0,0)"/>
<path d="" fill="#000000" transform="translate(0,0)"/>
<path d="" fill="#000000" transform="translate(0,0)"/>
<path d="" fill="#000000" transform="translate(0,0)"/>
<path d="" fill="#000000" transform="translate(0,0)"/>
<path d="" fill="#000000" transform="translate(0,0)"/>
<path d="" fill="#000000" transform="translate(0,0)"/>
<path d="" fill="#000000" transform="translate(0,0)"/>
<path d="" fill="#000000" transform="translate(0,0)"/>
<path d="" fill="#000000" transform="translate(0,0)"/>
<path d="" fill="#000000" transform="translate(0,0)"/>
<path d="" fill="#000000" transform="translate(0,0)"/>
<path d="" fill="#000000" transform="translate(0,0)"/>
<path d="" fill="#000000" transform="translate(0,0)"/>
<path d="" fill="#000000" transform="translate(0,0)"/>
<path d="" fill="#000000" transform="translate(0,0)"/>
<path d="" fill="#000000" transform="translate(0,0)"/>
<path d="" fill="#000000" transform="translate(0,0)"/>
<path d="" fill="#000000" transform="translate(0,0)"/>
<path d="" fill="#000000" transform="translate(0,0)"/>
<path d="" fill="#000000" transform="translate(0,0)"/>
<path d="" fill="#000000" transform="translate(0,0)"/>
<path d="" fill="#000000" transform="translate(0,0)"/>
<path d="" fill="#000000" transform="translate(0,0)"/>
<path d="" fill="#000000" transform="translate(0,0)"/>
<path d="" fill="#000000" transform="translate(0,0)"/>
<path d="" fill="#000000" transform="translate(0,0)"/>
<path d="" fill="#000000" transform="translate(0,0)"/>
<path d="" fill="#000000" transform="translate(0,0)"/>
<path d="" fill="#000000" transform="translate(0,0)"/>
<path d="" fill="#000000" transform="translate(0,0)"/>
<path d="" fill="#000000" transform="translate(0,0)"/>
<path d="" fill="#000000" transform="translate(0,0)"/>
<path d="" fill="#FFFFFF" transform="translate(0,0)"/>
<path d="" fill="#000000" transform="translate(0,0)"/>
<path d="" fill="#000000" transform="translate(0,0)"/>
<path d="" fill="#000000" transform="translate(0,0)"/>
<path d="" fill="#FFFFFF" transform="translate(0,0)"/>
<path d="" fill="#000000" transform="translate(0,0)"/>
<path d="" fill="#000000" transform="translate(0,0)"/>
<path d="" fill="#000000" transform="translate(0,0)"/>
<path d="" fill="#000000" transform="translate(0,0)"/>
<path d="" fill="#000000" transform="translate(0,0)"/>
<path d="" fill="#000000" transform="translate(0,0)"/>
<path d="" fill="#000000" transform="translate(0,0)"/>
<path d="" fill="#000000" transform="translate(0,0)"/>
<path d="" fill="#000000" transform="translate(0,0)"/>
<path d="" fill="#000000" transform="translate(0,0)"/>
<path d="" fill="#000000" transform="translate(0,0)"/>
<path d="" fill="#000000" transform="translate(0,0)"/>
<path d="" fill="#000000" transform="translate(0,0)"/>
<path d="" fill="#000000" transform="translate(0,0)"/>
<path d="" fill="#000000" transform="translate(0,0)"/>
<path d="" fill="#000000" transform="translate(0,0)"/>
<path d="" fill="#000000" transform="translate(0,0)"/>
<path d="" fill="#000000" transform="translate(0,0)"/>
<path d="" fill="#000000" transform="translate(0,0)"/>
<path d="" fill="#000000" transform="translate(0,0)"/>
<path d="" fill="#000000" transform="translate(0,0)"/>
<path d="" fill="#000000" transform="translate(0,0)"/>
<path d="" fill="#000000" transform="translate(0,0)"/>
<path d="" fill="#000000" transform="translate(0,0)"/>
<path d="" fill="#FFFFFF" transform="translate(0,0)"/>
<path d="" fill="#000000" transform="translate(0,0)"/>
<path d="" fill="#FFFFFF" transform="translate(0,0)"/>
<path d="" fill="#000000" transform="translate(0,0)"/>
<path d="" fill="#FFFFFF" transform="translate(0,0)"/>
<path d="" fill="#000000" transform="translate(0,0)"/>
<path d="" fill="#FFFFFF" transform="translate(0,0)"/>
<path d="" fill="#000000" transform="translate(0,0)"/>
<path d="" fill="#FFFFFF" transform="translate(0,0)"/>
<path d="" fill="#FFFFFF" transform="translate(0,0)"/>
<path d="" fill="#FFFFFF" transform="translate(0,0)"/>
<path d="" fill="#000000" transform="translate(0,0)"/>
<path d="" fill="#000000" transform="translate(0,0)"/>
<path d="" fill="#FFFFFF" transform="translate(0,0)"/>
<path d="" fill="#000000" transform="translate(0,0)"/>
<path d="" fill="#000000" transform="translate(0,0)"/>
<path d="" fill="#000000" transform="translate(0,0)"/>
<path d="" fill="#FFFFFF" transform="translate(0,0)"/>
<path d="" fill="#000000" transform="translate(0,0)"/>
<path d="" fill="#FFFFFF" transform="translate(0,0)"/>
<path d="" fill="#000000" transform="translate(0,0)"/>
<path d="" fill="#000000" transform="translate(0,0)"/>
<path d="" fill="#FFFFFF" transform="translate(0,0)"/>
<path d="" fill="#FFFFFF" transform="translate(0,0)"/>
<path d="" fill="#FFFFFF" transform="translate(0,0)"/>
<path d="" fill="#FFFFFF" transform="translate(0,0)"/>
<path d="" fill="#000000" transform="translate(0,0)"/>
<path d="" fill="#FFFFFF" transform="translate(0,0)"/>
<path d="" fill="#FFFFFF" transform="translate(0,0)"/>
<path d="" fill="#FFFFFF" transform="translate(0,0)"/>
<path d="" fill="#FFFFFF" transform="translate(0,0)"/>
<path d="" fill="#FFFFFF" transform="translate(0,0)"/>
<path d="" fill="#FFFFFF" transform="translate(0,0)"/>
<path d="" fill="#FFFFFF" transform="translate(0,0)"/>
<path d="" fill="#FFFFFF" transform="translate(0,0)"/>
<path d="" fill="#FFFFFF" transform="translate(0,0)"/>
</svg>
